<svg width="200" height="176" viewBox="0 0 200 176" fill="none" xmlns="http://www.w3.org/2000/svg">
<path d="M152.141 100.341C152.108 100.394 152.077 100.444 152.039 100.5C152.076 100.444 152.11 100.394 152.141 100.341Z" fill="#F57C14"/>
<path d="M152.578 99.185C152.575 99.1655 152.565 99.1282 152.554 99.0795C152.55 99.2581 152.513 99.5405 152.38 99.8782C152.55 99.4724 152.578 99.185 152.578 99.185Z" fill="#F57C14"/>
<path d="M120.014 18.765C118.602 18.4298 117.164 18.1286 115.744 17.869L113.675 29.2249C114.915 29.4288 116.15 29.6528 117.375 29.917L120.014 18.765Z" fill="#F57C14"/>
<path d="M144.578 41.7362L150.896 33.117C149.768 32.2895 148.604 31.4764 147.439 30.7053L141.483 39.7117C141.768 39.8891 142.056 40.0601 142.34 40.2408C143.095 40.728 143.841 41.2264 144.578 41.7362Z" fill="#F57C14"/>
<path d="M173.499 57.4326C172.766 56.2693 171.996 55.1094 171.212 53.9829L162.952 59.7488C163.67 60.7421 164.363 61.753 165.035 62.7797L173.499 57.4326Z" fill="#F57C14"/>
<path d="M18.7775 89.7262C18.5805 91.0971 18.4161 92.4898 18.2832 93.8692L25.6954 94.5771C25.8609 93.3078 26.0567 92.0482 26.2839 90.7995L18.7775 89.7262Z" fill="#F57C14"/>
<path d="M52.7679 32.2806C51.5867 33.1428 50.4085 34.053 49.2753 34.9808L55.9522 43.173C56.9807 42.4098 58.0309 41.6729 59.0972 40.9593L52.7679 32.2806Z" fill="#F57C14"/>
<path d="M20.1492 122.61C20.4489 123.932 20.7825 125.264 21.1426 126.572L27.7789 124.748C27.4453 123.534 27.148 122.31 26.8749 121.078L20.1492 122.61Z" fill="#F57C14"/>
<path d="M29.7113 58.0211C29.0019 59.2443 28.3132 60.5038 27.6621 61.7672L35.5683 65.8483C36.2167 64.7459 36.8925 63.663 37.5941 62.597L29.7113 58.0211Z" fill="#F57C14"/>
<path d="M84.9447 18.1235C83.505 18.4105 82.0561 18.7439 80.6349 19.1096L83.505 30.2874C84.7335 29.9926 85.9728 29.7287 87.2214 29.4957L84.9447 18.1235Z" fill="#F57C14"/>
<path d="M156.165 51.6214L178.008 32.4059C176.837 31.1619 175.635 29.9464 174.405 28.7629L153.518 49.0017C154.421 49.8559 155.305 50.728 156.165 51.6214Z" fill="#F57C14"/>
<path d="M132.016 34.6912L144.53 8.71763C142.949 8.02079 141.348 7.36266 139.727 6.74324L128.607 33.283C129.754 33.7233 130.89 34.1943 132.016 34.6912Z" fill="#F57C14"/>
<path d="M176.85 75.0852L199.518 66.8988C198.921 65.3043 198.283 63.7271 197.611 62.1727L176.086 71.0799C176.334 72.162 176.611 73.529 176.85 75.0852Z" fill="#F57C14"/>
<path d="M25.056 104.466C25.056 104.429 25.0572 104.391 25.0572 104.354L0 104.525C0.0217543 106.203 0.0829104 107.871 0.183705 109.53L25.1587 108.255C25.0983 106.997 25.056 105.735 25.056 104.466Z" fill="#F57C14"/>
<path d="M74.4742 33.0595L63.4364 7.89509C61.8307 8.56479 60.2475 9.27143 58.6851 10.0182L71.0142 34.4615C72.1531 33.9668 73.3064 33.4979 74.4742 33.0595Z" fill="#F57C14"/>
<path d="M101.236 28.1965C101.984 28.1965 102.729 28.2147 103.475 28.2362L104.01 0.0132256C103.681 0.0099167 103.356 -6.66417e-06 103.029 -6.66417e-06C101.617 -6.66417e-06 100.213 0.0363844 98.8147 0.0926351L99.7979 28.2147C100.275 28.2048 100.755 28.1965 101.236 28.1965Z" fill="#F57C14"/>
<path d="M49.0437 48.9637L29.4406 30.9592C28.244 32.1805 27.0777 33.4327 25.9441 34.7127L46.3274 51.6555C47.2094 50.7358 48.1149 49.838 49.0437 48.9637Z" fill="#F57C14"/>
<path d="M31.4001 74.011L7.28465 64.9596C6.65819 66.5308 6.06911 68.122 5.51892 69.7321L29.9349 77.6154C30.394 76.3984 30.882 75.1978 31.4001 74.011Z" fill="#F57C14"/>
<path d="M31.2934 134.727L8.19653 143.589C8.85496 145.136 9.55001 146.662 10.28 148.168L32.9322 138.259C32.3557 137.095 31.8083 135.918 31.2934 134.727Z" fill="#F57C14"/>
<path d="M103.501 71.7536C103.162 78.08 97.3359 84.4984 90.7359 92.7029C84.1344 100.905 90.0087 114.155 90.0087 114.155C100.439 111.236 103.421 90.0667 103.421 90.0667C105.053 102.971 94.033 115.571 94.033 115.571C122.03 108.65 103.501 71.7536 103.501 71.7536Z" fill="#2D8E3C"/>
<path d="M170.069 70.7292C169.889 73.0121 168.498 75.0812 166.437 77.1976C164.454 79.2315 161.854 81.3111 159.095 83.6712C153.461 88.4878 155.808 98.4189 155.808 98.4189C163.404 97.7606 168.215 83.4993 168.215 83.4993C167.668 92.6382 158.41 99.9242 158.41 99.9242C165.458 99.526 169.013 95.8719 170.652 91.2775C173.73 82.6612 170.069 70.7292 170.069 70.7292Z" fill="#2D8E3C"/>
<path d="M116.745 118.504C134.496 112.154 153.045 107.985 171.867 105.954C171.867 105.954 171.867 105.954 171.869 105.954C171.881 105.412 171.89 104.87 171.89 104.326C171.89 103.914 171.881 103.505 171.874 103.096C171.872 103.096 171.87 103.096 171.869 103.096C152.69 104.49 133.622 108.084 115.219 113.972C92.5653 121.194 70.9641 131.853 51.2848 145.383C49.6097 146.534 47.954 147.713 46.3067 148.905C46.2776 148.926 46.1254 149.046 46.0951 149.068C47.618 150.959 49.357 152.675 51.0612 154.4C52.2347 153.516 54.3679 152.019 55.4373 151.23C74.0997 137.448 94.796 126.33 116.745 118.504Z" fill="#2D8E3C"/>
<path d="M148.611 139.14C148.012 137.743 147.276 136.17 146.401 134.542C145.227 132.36 143.803 130.082 142.127 128.006C140.964 126.564 139.675 125.221 138.265 124.074C135.205 121.585 131.563 120.027 127.322 120.411C124.959 120.625 122.413 121.436 119.677 123.033C119.677 123.033 119.685 123.034 119.686 123.034C119.834 123.046 126.161 123.597 132.281 126.604C134.13 127.512 135.96 128.644 137.594 130.056C138.591 130.916 139.515 131.88 140.325 132.96C140.325 132.96 138.899 131.851 136.697 130.473C135.047 129.442 132.963 128.263 130.713 127.283C126.475 125.436 121.658 124.306 118.075 126.255C118.075 126.255 119.081 128.995 121.135 131.923C122.208 133.455 123.57 135.036 125.224 136.308C126.884 137.582 128.836 138.545 131.094 138.823C133.573 139.13 135.934 139.378 138.128 139.669C140.99 140.048 143.555 140.508 145.701 141.266C147.762 141.996 149.443 143 150.608 144.496C150.608 144.496 149.948 142.255 148.611 139.14Z" fill="#2D8E3C"/>
<path d="M130.798 141.229C127.684 140.846 125.09 139.417 122.981 137.606C121.223 138.64 119.474 139.669 117.749 140.683C115.959 141.853 114.191 143.008 112.451 144.146C111.589 144.728 110.694 145.255 109.88 145.871C109.051 146.472 108.23 147.067 107.419 147.656C106.605 148.245 105.8 148.83 105.004 149.407C104.212 149.986 103.413 150.543 102.678 151.158C99.7053 153.573 96.796 155.773 94.3334 158.059C93.0749 159.177 91.8678 160.249 90.7214 161.268C89.581 162.313 88.5314 163.398 87.5258 164.372C86.5232 165.362 85.5873 166.287 84.7195 167.144C84.5029 167.359 84.2893 167.57 84.0819 167.776C83.8971 167.975 83.7154 168.17 83.5382 168.361C83.1853 168.741 82.8491 169.104 82.5295 169.449C81.5178 170.542 80.6803 171.446 80.0352 172.143C86.0689 174.071 92.4524 175.216 99.0662 175.46C99.1964 175.294 99.3206 175.136 99.4539 174.967C100.214 174.018 100.97 172.988 101.866 171.927C102.787 170.872 103.754 169.763 104.764 168.605C106.731 166.228 109.124 163.901 111.562 161.324C112.165 160.671 112.83 160.069 113.492 159.444C114.153 158.819 114.826 158.186 115.503 157.548C116.183 156.906 116.869 156.259 117.563 155.606C118.244 154.934 119.006 154.347 119.734 153.705C121.214 152.44 122.719 151.153 124.241 149.851C125.827 148.621 127.434 147.376 129.051 146.122C130.649 144.826 132.371 143.681 134.07 142.477C134.42 142.234 134.77 141.987 135.12 141.739C134.711 141.692 134.298 141.643 133.881 141.595C132.876 141.479 131.847 141.36 130.798 141.229Z" fill="#49BC39"/>
<path d="M115.079 125.124L115.15 125.086L114.498 125.03C113.599 125.399 112.702 125.764 111.806 126.132C110.736 126.579 109.647 126.993 108.595 127.468C107.549 127.958 106.504 128.447 105.464 128.934C104.422 129.423 103.384 129.909 102.352 130.393C101.836 130.636 101.319 130.878 100.806 131.119C100.294 131.366 99.8014 131.644 99.3017 131.904C97.3042 132.964 95.3308 134.012 93.3914 135.043C92.4076 135.54 91.486 136.12 90.5545 136.669C89.6259 137.223 88.7057 137.772 87.7955 138.315C86.8838 138.859 85.9821 139.398 85.0916 139.929C84.6415 140.189 84.2055 140.464 83.7836 140.754C83.3561 141.037 82.9328 141.319 82.5124 141.6C80.8264 142.723 79.1856 143.815 77.6001 144.873C76.7932 145.388 76.0458 145.952 75.3068 146.501C74.565 147.049 73.8388 147.586 73.1268 148.112C71.7027 149.172 70.3352 150.189 69.0356 151.154C67.7601 152.203 66.5484 153.198 65.4102 154.133C64.2692 155.075 63.2018 155.957 62.2166 156.771C61.6999 157.184 61.3091 157.562 60.8915 157.931C60.4838 158.299 60.096 158.65 59.7265 158.983C59.0965 159.55 58.5289 160.063 58.0178 160.524C62.5691 164.065 67.5591 167.064 72.8932 169.429C73.2089 169.066 73.5387 168.674 73.8686 168.345C74.6401 167.539 75.4739 166.666 76.3643 165.735C77.2576 164.797 78.2075 163.8 79.2097 162.747C80.287 161.725 81.4195 160.648 82.6016 159.526C83.1947 158.964 83.8006 158.389 84.4192 157.803C85.035 157.215 85.6593 156.611 86.3402 156.052C87.6808 154.903 89.0667 153.715 90.4922 152.492C90.849 152.186 91.2085 151.878 91.5709 151.568C91.9277 151.25 92.2986 150.947 92.685 150.659C93.4481 150.069 94.221 149.471 95.001 148.866C95.7824 148.26 96.5738 147.648 97.3722 147.029C98.1734 146.415 98.9662 145.765 99.8226 145.196C101.511 144.018 103.23 142.819 104.97 141.605C105.407 141.305 105.836 140.985 106.285 140.699C106.739 140.415 107.192 140.131 107.647 139.847C108.557 139.277 109.474 138.703 110.392 138.129C111.315 137.551 112.239 136.972 113.166 136.391C114.102 135.822 115.073 135.314 116.029 134.77C116.991 134.232 117.954 133.695 118.919 133.155L119.006 133.107C116.925 130.086 115.889 127.333 115.801 127.091L115.079 125.124Z" fill="#49BC39"/>
<path d="M148.517 133.336C149.006 133.056 149.501 132.774 149.99 132.496C151.774 131.431 153.621 130.53 155.432 129.604C156.34 129.141 157.243 128.681 158.138 128.225C158.587 127.996 159.035 127.767 159.479 127.541C159.929 127.323 160.385 127.127 160.835 126.922C162.643 126.104 164.421 125.299 166.161 124.512C166.598 124.314 167.032 124.118 167.462 123.923C167.902 123.748 168.338 123.574 168.771 123.401C169.397 123.152 170.009 122.908 170.623 122.665C171.026 121.158 171.385 119.633 171.691 118.09C171.16 118.227 170.626 118.364 170.084 118.499C169.182 118.73 168.265 118.964 167.338 119.201C166.874 119.32 166.406 119.44 165.939 119.561C165.474 119.703 165.01 119.844 164.541 119.988C162.664 120.562 160.746 121.148 158.797 121.743C158.309 121.895 157.816 122.037 157.328 122.2C156.843 122.373 156.358 122.546 155.869 122.721C154.892 123.069 153.908 123.421 152.916 123.775C150.936 124.486 148.91 125.173 146.938 126.027C146.119 126.365 145.286 126.706 144.464 127.045C144.459 127.047 144.455 127.05 144.45 127.051C145.878 128.895 147.244 130.998 148.507 133.342C148.51 133.34 148.512 133.338 148.517 133.336Z" fill="#49BC39"/>
<path d="M145.838 121.257C147.837 120.624 149.801 120.002 151.725 119.393C152.693 119.097 153.641 118.764 154.593 118.508C155.549 118.258 156.494 118.013 157.426 117.769C159.294 117.282 161.114 116.808 162.872 116.349C164.653 115.98 166.373 115.623 168.025 115.28C168.854 115.11 169.665 114.942 170.457 114.778C171.088 114.649 171.706 114.523 172.318 114.422C172.423 113.684 172.519 112.943 172.603 112.199C172.583 112.199 172.566 112.2 172.549 112.2C171.765 112.207 170.97 112.286 170.153 112.352C169.335 112.42 168.5 112.488 167.645 112.559C165.932 112.702 164.149 112.851 162.303 113.006C160.467 113.253 158.567 113.509 156.615 113.772C155.636 113.903 154.644 114.038 153.639 114.173C152.636 114.317 151.634 114.536 150.614 114.718C148.569 115.101 146.483 115.493 144.36 115.891C142.255 116.372 140.123 116.904 137.955 117.422C136.873 117.693 135.772 117.925 134.686 118.234C134.237 118.367 133.78 118.501 133.328 118.635C133.32 118.638 133.309 118.641 133.3 118.643C135.551 119.332 137.723 120.509 139.793 122.191C140.149 122.48 140.503 122.786 140.854 123.107C140.856 123.106 140.856 123.106 140.857 123.106C142.53 122.479 144.193 121.849 145.838 121.257Z" fill="#49BC39"/>
<path d="M164.342 129.195C162.462 130.311 160.576 131.431 158.688 132.552C156.773 133.639 154.97 134.895 153.133 136.095C152.308 136.644 151.224 137.361 150.403 137.908C151.844 141.203 152.411 147.101 152.503 147.419C149.282 144.113 143.248 143.058 143.248 143.058C142.998 143.242 142.741 143.428 142.492 143.611C140.827 144.953 139.181 146.278 137.563 147.581C136.764 148.247 135.925 148.86 135.175 149.555C134.41 150.233 133.651 150.907 132.903 151.573C132.152 152.242 131.408 152.903 130.675 153.555C129.942 154.211 129.202 154.845 128.532 155.528C125.813 158.227 123.135 160.703 120.911 163.224C119.769 164.461 118.675 165.648 117.633 166.775C116.601 167.927 115.664 169.112 114.76 170.18C113.861 171.264 113.019 172.278 112.243 173.217C112.048 173.452 111.856 173.683 111.67 173.908C111.506 174.125 111.344 174.338 111.187 174.545C111.085 174.68 110.994 174.8 110.894 174.932C120.483 173.701 129.474 170.564 137.48 165.913C148.205 159.682 157.156 150.736 163.4 140.011C165.88 135.751 167.931 131.211 169.496 126.448C167.788 127.36 166.068 128.274 164.342 129.195Z" fill="#49BC39"/>
<path d="M101.253 33.7558C62.2435 33.7558 30.6195 65.417 30.6195 104.472C30.6195 120.111 35.6944 134.562 44.2799 146.271C45.9756 145.043 47.681 143.829 49.4055 142.643C59.3627 135.798 69.7399 129.733 80.4498 124.454C86.0552 120.329 85.6325 114.756 85.2998 112.889C83.9841 108.373 81.796 97.5235 88.3027 90.1593C89.1312 89.2228 89.9494 88.3102 90.7489 87.4179C91.7267 86.3285 92.6281 85.2578 93.4582 84.2074C93.5143 84.1258 97.0503 78.9235 99.9005 73.4866C101.517 70.4069 102.91 67.2526 103.323 64.9173C103.747 65.8283 118.146 88.3901 109.785 107.329C108.492 110.262 106.334 112.546 103.798 114.399C107.244 113.125 110.714 111.921 114.213 110.805C125.467 107.204 137.028 104.439 148.804 102.496C150.568 101.954 151.511 101.213 152.007 100.543C152.017 100.529 152.029 100.513 152.039 100.499C152.078 100.445 152.107 100.394 152.141 100.341C152.185 100.268 152.229 100.197 152.265 100.128C152.275 100.106 152.287 100.084 152.296 100.063C152.328 99.9984 152.355 99.9379 152.381 99.8788C152.515 99.5409 152.55 99.2588 152.554 99.0786C152.28 97.8396 150.111 86.9811 156.94 81.1448C157.607 80.572 158.266 80.0163 158.913 79.4724C161.305 77.4568 163.5 75.6042 164.961 73.8996C153.571 50.1515 129.324 33.7558 101.253 33.7558Z" fill="#F57C14"/>
</svg>
