<svg width="1266" height="1266" viewBox="0 0 1266 1266" fill="none" xmlns="http://www.w3.org/2000/svg">
<rect width="1266" height="1266" fill="white"/>
<g style="mix-blend-mode:hard-light" opacity="0.15">
<path d="M366.231 274.335C360.135 280.914 340.482 270.803 340.709 286.257C340.936 301.711 325.675 296.158 319.317 302.516M336.032 258.738C330.472 264.62 316.246 259.01 314.599 271.108C312.951 283.207 301.633 280.653 295.893 286.393M283.835 356.731C290.414 350.635 280.303 330.982 295.757 331.209C311.211 331.436 305.658 316.175 312.016 309.817M264.59 329.664C271.186 323.592 265.925 309.089 278.8 306.906C291.675 304.722 289.781 292.9 296.239 286.644M378.369 368.869C378.703 366.105 282.281 273.192 276.117 267.663C269.953 262.134 268.836 258.736 266.692 253.151M266.761 250.481C288.625 264.001 337.092 244.153 363.11 270.171C389.127 296.189 389.082 337.862 378.629 369.129C347.363 379.582 305.689 379.627 279.671 353.61C253.653 327.592 250.843 277.326 266.761 250.481ZM333.923 342.626L323.315 342.638C321.362 342.64 319.777 344.225 319.775 346.178L319.763 356.786C319.761 358.739 321.343 360.321 323.295 360.319L333.904 360.307C335.857 360.305 337.442 358.72 337.444 356.767L337.455 346.159C337.458 344.206 335.876 342.624 333.923 342.626ZM367.789 308.76L357.181 308.772C355.228 308.774 353.643 310.359 353.641 312.312L353.629 322.92C353.627 324.873 355.209 326.454 357.162 326.452L367.77 326.441C369.723 326.439 371.308 324.854 371.31 322.901L371.322 312.292C371.324 310.339 369.742 308.758 367.789 308.76Z" stroke="url(#paint0_linear_24_7)" stroke-width="11" stroke-linecap="round" style="mix-blend-mode:plus-lighter"/>
</g>
<g style="mix-blend-mode:exclusion" opacity="0.15">
<path d="M171.263 317.203C162.3 317.545 155.553 296.499 144.786 307.587C134.019 318.675 127.154 303.957 118.162 303.957M160.938 284.821C152.847 285.049 146.755 271.023 137.035 278.412C127.315 285.802 121.117 275.993 113 275.993M54.7375 317.203C63.6995 317.545 70.4475 296.499 81.2144 307.587C91.9813 318.675 98.846 303.957 107.838 303.957M60.2688 284.456C69.226 284.826 75.7611 270.851 86.4087 278.411C97.0563 285.971 104.077 276.273 113.067 276.416M113 392.632C115.19 390.914 112.71 257.033 112.26 248.765C111.811 240.497 113.424 237.305 115.857 231.84M117.794 230C123.694 255.02 172 275.257 172 312.052C172 348.847 142.5 378.282 113 393C83.5 378.282 54 348.847 54 312.052C54 275.257 87.5562 237.727 117.794 230ZM100.128 342.648L92.6189 335.155C91.2365 333.775 88.9951 333.775 87.6126 335.155L80.1032 342.648C78.7207 344.027 78.7207 346.264 80.1032 347.643L87.6126 355.136C88.9951 356.516 91.2365 356.516 92.6189 355.136L100.128 347.643C101.511 346.264 101.511 344.027 100.128 342.648ZM148.023 342.648L140.513 335.155C139.131 333.775 136.889 333.775 135.507 335.155L127.997 342.648C126.615 344.027 126.615 346.264 127.997 347.643L135.507 355.136C136.889 356.516 139.131 356.516 140.513 355.136L148.022 347.643C149.405 346.264 149.405 344.027 148.023 342.648Z" stroke="url(#paint1_linear_24_7)" stroke-width="11" stroke-linecap="round" style="mix-blend-mode:plus-lighter"/>
</g>
<g style="mix-blend-mode:exclusion" opacity="0.15">
<path d="M795.263 317.203C786.3 317.545 779.553 296.499 768.786 307.587C758.019 318.675 751.154 303.957 742.162 303.957M784.938 284.821C776.847 285.049 770.755 271.023 761.035 278.412C751.315 285.802 745.117 275.993 737 275.993M678.738 317.203C687.7 317.545 694.447 296.499 705.214 307.587C715.981 318.675 722.846 303.957 731.838 303.957M684.269 284.456C693.226 284.826 699.761 270.851 710.409 278.411C721.056 285.971 728.077 276.273 737.067 276.416M737 392.632C739.19 390.914 736.71 257.033 736.26 248.765C735.811 240.497 737.424 237.305 739.857 231.84M741.794 230C747.694 255.02 796 275.257 796 312.052C796 348.847 766.5 378.282 737 393C707.5 378.282 678 348.847 678 312.052C678 275.257 711.556 237.727 741.794 230ZM724.128 342.648L716.619 335.155C715.236 333.775 712.995 333.775 711.613 335.155L704.103 342.648C702.721 344.027 702.721 346.264 704.103 347.643L711.613 355.136C712.995 356.516 715.236 356.516 716.619 355.136L724.128 347.643C725.511 346.264 725.511 344.027 724.128 342.648ZM772.023 342.648L764.513 335.155C763.131 333.775 760.889 333.775 759.507 335.155L751.997 342.648C750.615 344.027 750.615 346.264 751.997 347.643L759.507 355.136C760.889 356.516 763.131 356.516 764.513 355.136L772.022 347.643C773.405 346.264 773.405 344.027 772.023 342.648Z" stroke="url(#paint2_linear_24_7)" stroke-width="11" stroke-linecap="round" style="mix-blend-mode:plus-lighter"/>
</g>
<g style="mix-blend-mode:exclusion" opacity="0.15">
<path d="M587.263 317.203C578.3 317.545 571.553 296.499 560.786 307.587C550.019 318.675 543.154 303.957 534.162 303.957M576.938 284.821C568.847 285.049 562.755 271.023 553.035 278.412C543.315 285.802 537.117 275.993 529 275.993M470.738 317.203C479.7 317.545 486.447 296.499 497.214 307.587C507.981 318.675 514.846 303.957 523.838 303.957M476.269 284.456C485.226 284.826 491.761 270.851 502.409 278.411C513.056 285.971 520.077 276.273 529.067 276.416M529 392.632C531.19 390.914 528.71 257.033 528.26 248.765C527.811 240.497 529.424 237.305 531.857 231.84M533.794 230C539.694 255.02 588 275.257 588 312.052C588 348.847 558.5 378.282 529 393C499.5 378.282 470 348.847 470 312.052C470 275.257 503.556 237.727 533.794 230ZM516.128 342.648L508.619 335.155C507.236 333.775 504.995 333.775 503.613 335.155L496.103 342.648C494.721 344.027 494.721 346.264 496.103 347.643L503.613 355.136C504.995 356.516 507.236 356.516 508.619 355.136L516.128 347.643C517.511 346.264 517.511 344.027 516.128 342.648ZM564.023 342.648L556.513 335.155C555.131 333.775 552.889 333.775 551.507 335.155L543.997 342.648C542.615 344.027 542.615 346.264 543.997 347.643L551.507 355.136C552.889 356.516 555.131 356.516 556.513 355.136L564.022 347.643C565.405 346.264 565.405 344.027 564.023 342.648Z" stroke="url(#paint3_linear_24_7)" stroke-width="11" stroke-linecap="round" style="mix-blend-mode:plus-lighter"/>
</g>
<g style="mix-blend-mode:exclusion" opacity="0.15">
<path d="M1211.26 317.203C1202.3 317.545 1195.55 296.499 1184.79 307.587C1174.02 318.675 1167.15 303.957 1158.16 303.957M1200.94 284.821C1192.85 285.049 1186.75 271.023 1177.03 278.412C1167.31 285.802 1161.12 275.993 1153 275.993M1094.74 317.203C1103.7 317.545 1110.45 296.499 1121.21 307.587C1131.98 318.675 1138.85 303.957 1147.84 303.957M1100.27 284.456C1109.23 284.826 1115.76 270.851 1126.41 278.411C1137.06 285.971 1144.08 276.273 1153.07 276.416M1153 392.632C1155.19 390.914 1152.71 257.033 1152.26 248.765C1151.81 240.497 1153.42 237.305 1155.86 231.84M1157.79 230C1163.69 255.02 1212 275.257 1212 312.052C1212 348.847 1182.5 378.282 1153 393C1123.5 378.282 1094 348.847 1094 312.052C1094 275.257 1127.56 237.727 1157.79 230ZM1140.13 342.648L1132.62 335.155C1131.24 333.775 1129 333.775 1127.61 335.155L1120.1 342.648C1118.72 344.027 1118.72 346.264 1120.1 347.643L1127.61 355.136C1129 356.516 1131.24 356.516 1132.62 355.136L1140.13 347.643C1141.51 346.264 1141.51 344.027 1140.13 342.648ZM1188.02 342.648L1180.51 335.155C1179.13 333.775 1176.89 333.775 1175.51 335.155L1168 342.648C1166.61 344.027 1166.61 346.264 1168 347.643L1175.51 355.136C1176.89 356.516 1179.13 356.516 1180.51 355.136L1188.02 347.643C1189.4 346.264 1189.4 344.027 1188.02 342.648Z" stroke="url(#paint4_linear_24_7)" stroke-width="11" stroke-linecap="round" style="mix-blend-mode:plus-lighter"/>
</g>
<g style="mix-blend-mode:hard-light" opacity="0.15">
<path d="M982.165 356.731C975.586 350.635 985.696 330.982 970.243 331.209C954.789 331.436 960.342 316.175 953.984 309.817M997.762 326.532C991.879 320.972 997.49 306.746 985.391 305.099C973.293 303.451 975.847 292.133 970.107 286.393M899.769 274.335C905.864 280.914 925.518 270.803 925.291 286.257C925.064 301.711 940.325 296.158 946.683 302.516M926.836 255.09C932.908 261.686 947.411 256.425 949.594 269.3C951.777 282.175 963.599 280.281 969.856 286.739M887.631 368.869C890.394 369.203 983.308 272.781 988.837 266.617C994.365 260.452 997.764 259.336 1003.35 257.192M1006.02 257.261C992.499 279.124 1012.35 327.592 986.329 353.61C960.311 379.627 918.637 379.582 887.371 369.129C876.918 337.862 876.872 296.189 902.89 270.171C928.908 244.153 979.174 241.343 1006.02 257.261ZM913.873 324.423L913.862 313.815C913.86 311.862 912.275 310.277 910.322 310.275L899.713 310.263C897.76 310.261 896.179 311.842 896.181 313.795L896.193 324.404C896.195 326.357 897.78 327.942 899.733 327.944L910.341 327.955C912.294 327.958 913.876 326.376 913.873 324.423ZM947.74 358.289L947.728 347.681C947.726 345.728 946.141 344.143 944.188 344.141L933.58 344.129C931.627 344.127 930.045 345.709 930.047 347.662L930.059 358.27C930.061 360.223 931.646 361.808 933.599 361.81L944.207 361.822C946.16 361.824 947.742 360.242 947.74 358.289Z" stroke="url(#paint5_linear_24_7)" stroke-width="11" stroke-linecap="round" style="mix-blend-mode:plus-lighter"/>
</g>
<g style="mix-blend-mode:exclusion" opacity="0.15">
<path d="M379.263 106.203C370.3 106.545 363.553 85.4987 352.786 96.5868C342.019 107.675 335.154 92.9571 326.162 92.9571M368.938 73.8211C360.847 74.049 354.755 60.0226 345.035 67.4123C335.315 74.802 329.117 64.9932 321 64.9932M262.738 106.203C271.7 106.545 278.447 85.4987 289.214 96.5868C299.981 107.675 306.846 92.9571 315.838 92.9571M268.269 73.456C277.226 73.8262 283.761 59.8515 294.409 67.4114C305.056 74.9713 312.077 65.2728 321.067 65.4156M321 181.632C323.19 179.914 320.71 46.0333 320.26 37.7652C319.811 29.4971 321.424 26.3049 323.857 20.8397M325.794 19C331.694 44.0203 380 64.2573 380 101.052C380 137.847 350.5 167.282 321 182C291.5 167.282 262 137.847 262 101.052C262 64.2573 295.556 26.7269 325.794 19ZM308.128 131.648L300.619 124.155C299.236 122.775 296.995 122.775 295.613 124.155L288.103 131.648C286.721 133.027 286.721 135.264 288.103 136.643L295.613 144.136C296.995 145.516 299.236 145.516 300.619 144.136L308.128 136.643C309.511 135.264 309.511 133.027 308.128 131.648ZM356.023 131.648L348.513 124.155C347.131 122.775 344.889 122.775 343.507 124.155L335.997 131.648C334.615 133.027 334.615 135.264 335.997 136.643L343.507 144.136C344.889 145.516 347.131 145.516 348.513 144.136L356.022 136.643C357.405 135.264 357.405 133.027 356.023 131.648Z" stroke="url(#paint6_linear_24_7)" stroke-width="11" stroke-linecap="round" style="mix-blend-mode:plus-lighter"/>
</g>
<g style="mix-blend-mode:hard-light" opacity="0.15">
<path d="M158.231 63.3349C152.135 69.9138 132.482 59.8033 132.709 75.2571C132.936 90.7109 117.675 85.158 111.317 91.5159M128.032 47.7382C122.472 53.6204 108.246 48.0098 106.599 60.1083C104.951 72.2068 93.6327 69.6531 87.8929 75.3929M75.8349 145.731C82.4138 139.635 72.3033 119.982 87.7571 120.209C103.211 120.436 97.658 105.175 104.016 98.8168M56.5904 118.664C63.1859 112.592 57.9253 98.089 70.7999 95.9057C83.6746 93.7224 81.7808 81.9003 88.239 75.6442M170.369 157.869C170.703 155.105 74.281 62.1915 68.1167 56.6629C61.9525 51.1343 60.8362 47.736 58.6922 42.1512M58.7605 39.4811C80.6244 53.0012 129.092 33.1533 155.11 59.171C181.127 85.1887 181.082 126.862 170.629 158.129C139.362 168.582 97.6887 168.627 71.671 142.61C45.6533 116.592 42.8431 66.326 58.7605 39.4811ZM125.923 131.626L115.315 131.638C113.362 131.64 111.777 133.225 111.775 135.178L111.763 145.786C111.761 147.739 113.342 149.321 115.295 149.319L125.904 149.307C127.857 149.305 129.442 147.72 129.444 145.767L129.455 135.159C129.458 133.206 127.876 131.624 125.923 131.626ZM159.789 97.7601L149.181 97.7717C147.228 97.7738 145.643 99.3587 145.641 101.312L145.629 111.92C145.627 113.873 147.209 115.454 149.162 115.452L159.77 115.441C161.723 115.439 163.308 113.854 163.31 111.901L163.322 101.292C163.324 99.3394 161.742 97.7579 159.789 97.7601Z" stroke="url(#paint7_linear_24_7)" stroke-width="11" stroke-linecap="round" style="mix-blend-mode:plus-lighter"/>
</g>
<g style="mix-blend-mode:hard-light" opacity="0.15">
<path d="M795.263 106.203C786.3 106.545 779.553 85.4987 768.786 96.5868C758.019 107.675 751.154 92.9571 742.162 92.9571M784.938 73.8211C776.847 74.049 770.755 60.0226 761.035 67.4123C751.315 74.802 745.117 64.9932 737 64.9932M678.738 106.203C687.7 106.545 694.447 85.4987 705.214 96.5868C715.981 107.675 722.846 92.9571 731.838 92.9571M684.269 73.456C693.226 73.8262 699.761 59.8515 710.409 67.4114C721.056 74.9713 728.077 65.2728 737.067 65.4156M737 181.632C739.19 179.914 736.71 46.0333 736.26 37.7652C735.811 29.4971 737.424 26.3049 739.857 20.8397M741.794 19C747.694 44.0203 796 64.2573 796 101.052C796 137.847 766.5 167.282 737 182C707.5 167.282 678 137.847 678 101.052C678 64.2573 711.556 26.7269 741.794 19ZM724.128 131.648L716.619 124.155C715.236 122.775 712.995 122.775 711.613 124.155L704.103 131.648C702.721 133.027 702.721 135.264 704.103 136.643L711.613 144.136C712.995 145.516 715.236 145.516 716.619 144.136L724.128 136.643C725.511 135.264 725.511 133.027 724.128 131.648ZM772.023 131.648L764.513 124.155C763.131 122.775 760.889 122.775 759.507 124.155L751.997 131.648C750.615 133.027 750.615 135.264 751.997 136.643L759.507 144.136C760.889 145.516 763.131 145.516 764.513 144.136L772.022 136.643C773.405 135.264 773.405 133.027 772.023 131.648Z" stroke="url(#paint8_linear_24_7)" stroke-width="11" stroke-linecap="round" style="mix-blend-mode:plus-lighter"/>
</g>
<g style="mix-blend-mode:hard-light" opacity="0.15">
<path d="M587.263 106.203C578.3 106.545 571.553 85.4987 560.786 96.5868C550.019 107.675 543.154 92.9571 534.162 92.9571M576.938 73.8211C568.847 74.049 562.755 60.0226 553.035 67.4123C543.315 74.802 537.117 64.9932 529 64.9932M470.738 106.203C479.7 106.545 486.447 85.4987 497.214 96.5868C507.981 107.675 514.846 92.9571 523.838 92.9571M476.269 73.456C485.226 73.8262 491.761 59.8515 502.409 67.4114C513.056 74.9713 520.077 65.2728 529.067 65.4156M529 181.632C531.19 179.914 528.71 46.0333 528.26 37.7652C527.811 29.4971 529.424 26.3049 531.857 20.8397M533.794 19C539.694 44.0203 588 64.2573 588 101.052C588 137.847 558.5 167.282 529 182C499.5 167.282 470 137.847 470 101.052C470 64.2573 503.556 26.7269 533.794 19ZM516.128 131.648L508.619 124.155C507.236 122.775 504.995 122.775 503.613 124.155L496.103 131.648C494.721 133.027 494.721 135.264 496.103 136.643L503.613 144.136C504.995 145.516 507.236 145.516 508.619 144.136L516.128 136.643C517.511 135.264 517.511 133.027 516.128 131.648ZM564.023 131.648L556.513 124.155C555.131 122.775 552.889 122.775 551.507 124.155L543.997 131.648C542.615 133.027 542.615 135.264 543.997 136.643L551.507 144.136C552.889 145.516 555.131 145.516 556.513 144.136L564.022 136.643C565.405 135.264 565.405 133.027 564.023 131.648Z" stroke="url(#paint9_linear_24_7)" stroke-width="11" stroke-linecap="round" style="mix-blend-mode:plus-lighter"/>
</g>
<g style="mix-blend-mode:hard-light" opacity="0.15">
<path d="M1190.17 145.731C1183.59 139.635 1193.7 119.982 1178.24 120.209C1162.79 120.436 1168.34 105.175 1161.98 98.8168M1205.76 115.532C1199.88 109.972 1205.49 95.7465 1193.39 94.0986C1181.29 92.4508 1183.85 81.1328 1178.11 75.3929M1107.77 63.3349C1113.86 69.9138 1133.52 59.8033 1133.29 75.2571C1133.06 90.711 1148.33 85.158 1154.68 91.5159M1134.84 44.0904C1140.91 50.6859 1155.41 45.4253 1157.59 58.2999C1159.78 71.1746 1171.6 69.2809 1177.86 75.739M1095.63 157.869C1098.39 158.203 1191.31 61.781 1196.84 55.6167C1202.37 49.4525 1205.76 48.3363 1211.35 46.1922M1214.02 46.2605C1200.5 68.1245 1220.35 116.592 1194.33 142.61C1168.31 168.627 1126.64 168.582 1095.37 158.129C1084.92 126.862 1084.87 85.1887 1110.89 59.171C1136.91 33.1533 1187.17 30.3431 1214.02 46.2605ZM1121.87 113.423L1121.86 102.815C1121.86 100.862 1120.28 99.2769 1118.32 99.2747L1107.71 99.2632C1105.76 99.261 1104.18 100.842 1104.18 102.795L1104.19 113.404C1104.2 115.357 1105.78 116.942 1107.73 116.944L1118.34 116.955C1120.29 116.958 1121.88 115.376 1121.87 113.423ZM1155.74 147.289L1155.73 136.681C1155.73 134.728 1154.14 133.143 1152.19 133.141L1141.58 133.129C1139.63 133.127 1138.05 134.709 1138.05 136.662L1138.06 147.27C1138.06 149.223 1139.65 150.808 1141.6 150.81L1152.21 150.822C1154.16 150.824 1155.74 149.242 1155.74 147.289Z" stroke="url(#paint10_linear_24_7)" stroke-width="11" stroke-linecap="round" style="mix-blend-mode:plus-lighter"/>
</g>
<g style="mix-blend-mode:exclusion" opacity="0.15">
<path d="M1003.26 106.203C994.3 106.545 987.553 85.4987 976.786 96.5868C966.019 107.675 959.154 92.9571 950.162 92.9571M992.938 73.8211C984.847 74.049 978.755 60.0226 969.035 67.4123C959.315 74.802 953.117 64.9932 945 64.9932M886.738 106.203C895.7 106.545 902.447 85.4987 913.214 96.5868C923.981 107.675 930.846 92.9571 939.838 92.9571M892.269 73.456C901.226 73.8262 907.761 59.8515 918.409 67.4114C929.056 74.9713 936.077 65.2728 945.067 65.4156M945 181.632C947.19 179.914 944.71 46.0333 944.26 37.7652C943.811 29.4971 945.424 26.3049 947.857 20.8397M949.794 19C955.694 44.0203 1004 64.2573 1004 101.052C1004 137.847 974.5 167.282 945 182C915.5 167.282 886 137.847 886 101.052C886 64.2573 919.556 26.7269 949.794 19ZM932.128 131.648L924.619 124.155C923.236 122.775 920.995 122.775 919.613 124.155L912.103 131.648C910.721 133.027 910.721 135.264 912.103 136.643L919.613 144.136C920.995 145.516 923.236 145.516 924.619 144.136L932.128 136.643C933.511 135.264 933.511 133.027 932.128 131.648ZM980.023 131.648L972.513 124.155C971.131 122.775 968.889 122.775 967.507 124.155L959.997 131.648C958.615 133.027 958.615 135.264 959.997 136.643L967.507 144.136C968.889 145.516 971.131 145.516 972.513 144.136L980.022 136.643C981.405 135.264 981.405 133.027 980.023 131.648Z" stroke="url(#paint11_linear_24_7)" stroke-width="11" stroke-linecap="round" style="mix-blend-mode:plus-lighter"/>
</g>
<g style="mix-blend-mode:exclusion" opacity="0.15">
<path d="M379.263 742.203C370.3 742.545 363.553 721.499 352.786 732.587C342.019 743.675 335.154 728.957 326.162 728.957M368.938 709.821C360.847 710.049 354.755 696.023 345.035 703.412C335.315 710.802 329.117 700.993 321 700.993M262.738 742.203C271.7 742.545 278.447 721.499 289.214 732.587C299.981 743.675 306.846 728.957 315.838 728.957M268.269 709.456C277.226 709.826 283.761 695.851 294.409 703.411C305.056 710.971 312.077 701.273 321.067 701.416M321 817.632C323.19 815.914 320.71 682.033 320.26 673.765C319.811 665.497 321.424 662.305 323.857 656.84M325.794 655C331.694 680.02 380 700.257 380 737.052C380 773.847 350.5 803.282 321 818C291.5 803.282 262 773.847 262 737.052C262 700.257 295.556 662.727 325.794 655ZM308.128 767.648L300.619 760.155C299.236 758.775 296.995 758.775 295.613 760.155L288.103 767.648C286.721 769.027 286.721 771.264 288.103 772.643L295.613 780.136C296.995 781.516 299.236 781.516 300.619 780.136L308.128 772.643C309.511 771.264 309.511 769.027 308.128 767.648ZM356.023 767.648L348.513 760.155C347.131 758.775 344.889 758.775 343.507 760.155L335.997 767.648C334.615 769.027 334.615 771.264 335.997 772.643L343.507 780.136C344.889 781.516 347.131 781.516 348.513 780.136L356.022 772.643C357.405 771.264 357.405 769.027 356.023 767.648Z" stroke="url(#paint12_linear_24_7)" stroke-width="11" stroke-linecap="round" style="mix-blend-mode:plus-lighter"/>
</g>
<g style="mix-blend-mode:hard-light" opacity="0.15">
<path d="M171.263 742.203C162.3 742.545 155.553 721.499 144.786 732.587C134.019 743.675 127.154 728.957 118.162 728.957M160.938 709.821C152.847 710.049 146.755 696.023 137.035 703.412C127.315 710.802 121.117 700.993 113 700.993M54.7375 742.203C63.6995 742.545 70.4475 721.499 81.2144 732.587C91.9813 743.675 98.846 728.957 107.838 728.957M60.2688 709.456C69.226 709.826 75.7611 695.851 86.4087 703.411C97.0563 710.971 104.077 701.273 113.067 701.416M113 817.632C115.19 815.914 112.71 682.033 112.26 673.765C111.811 665.497 113.424 662.305 115.857 656.84M117.794 655C123.694 680.02 172 700.257 172 737.052C172 773.847 142.5 803.282 113 818C83.5 803.282 54 773.847 54 737.052C54 700.257 87.5562 662.727 117.794 655ZM100.128 767.648L92.6189 760.155C91.2365 758.775 88.9951 758.775 87.6126 760.155L80.1032 767.648C78.7207 769.027 78.7207 771.264 80.1032 772.643L87.6126 780.136C88.9951 781.516 91.2365 781.516 92.6189 780.136L100.128 772.643C101.511 771.264 101.511 769.027 100.128 767.648ZM148.023 767.648L140.513 760.155C139.131 758.775 136.889 758.775 135.507 760.155L127.997 767.648C126.615 769.027 126.615 771.264 127.997 772.643L135.507 780.136C136.889 781.516 139.131 781.516 140.513 780.136L148.022 772.643C149.405 771.264 149.405 769.027 148.023 767.648Z" stroke="url(#paint13_linear_24_7)" stroke-width="11" stroke-linecap="round" style="mix-blend-mode:plus-lighter"/>
</g>
<g style="mix-blend-mode:exclusion" opacity="0.15">
<path d="M782.231 699.335C776.135 705.914 756.482 695.803 756.709 711.257C756.936 726.711 741.675 721.158 735.317 727.516M752.032 683.738C746.472 689.62 732.247 684.01 730.599 696.108C728.951 708.207 717.633 705.653 711.893 711.393M699.835 781.731C706.414 775.635 696.303 755.982 711.757 756.209C727.211 756.436 721.658 741.175 728.016 734.817M680.59 754.664C687.186 748.592 681.925 734.089 694.8 731.906C707.675 729.722 705.781 717.9 712.239 711.644M794.369 793.869C794.703 791.105 698.281 698.192 692.117 692.663C685.953 687.134 684.836 683.736 682.692 678.151M682.761 675.481C704.625 689.001 753.092 669.153 779.11 695.171C805.127 721.189 805.082 762.862 794.629 794.129C763.363 804.582 721.689 804.627 695.671 778.61C669.653 752.592 666.843 702.326 682.761 675.481ZM749.923 767.626L739.315 767.638C737.362 767.64 735.777 769.225 735.775 771.178L735.763 781.786C735.761 783.739 737.343 785.321 739.296 785.319L749.904 785.307C751.857 785.305 753.442 783.72 753.444 781.767L753.456 771.159C753.458 769.206 751.876 767.624 749.923 767.626ZM783.789 733.76L773.181 733.772C771.228 733.774 769.643 735.359 769.641 737.312L769.629 747.92C769.627 749.873 771.209 751.454 773.162 751.452L783.77 751.441C785.723 751.439 787.308 749.854 787.31 747.901L787.322 737.292C787.324 735.339 785.742 733.758 783.789 733.76Z" stroke="url(#paint14_linear_24_7)" stroke-width="11" stroke-linecap="round" style="mix-blend-mode:plus-lighter"/>
</g>
<g style="mix-blend-mode:exclusion" opacity="0.15">
<path d="M566.165 781.731C559.586 775.635 569.697 755.982 554.243 756.209C538.789 756.436 544.342 741.175 537.984 734.817M581.762 751.532C575.88 745.972 581.49 731.746 569.392 730.099C557.293 728.451 559.847 717.133 554.107 711.393M483.769 699.335C489.865 705.914 509.518 695.803 509.291 711.257C509.064 726.711 524.325 721.158 530.683 727.516M510.836 680.09C516.908 686.686 531.411 681.425 533.594 694.3C535.778 707.175 547.6 705.281 553.856 711.739M471.631 793.869C474.395 794.203 567.308 697.781 572.837 691.617C578.366 685.452 581.764 684.336 587.349 682.192M590.019 682.26C576.499 704.124 596.347 752.592 570.329 778.61C544.311 804.627 502.638 804.582 471.371 794.129C460.918 762.862 460.873 721.189 486.89 695.171C512.908 669.153 563.174 666.343 590.019 682.26ZM497.874 749.423L497.862 738.815C497.86 736.862 496.275 735.277 494.322 735.275L483.714 735.263C481.761 735.261 480.179 736.842 480.181 738.795L480.193 749.404C480.195 751.357 481.78 752.942 483.733 752.944L494.341 752.955C496.294 752.958 497.876 751.376 497.874 749.423ZM531.74 783.289L531.728 772.681C531.726 770.728 530.141 769.143 528.188 769.141L517.58 769.129C515.627 769.127 514.046 770.709 514.048 772.662L514.059 783.27C514.061 785.223 515.646 786.808 517.599 786.81L528.208 786.822C530.161 786.824 531.742 785.242 531.74 783.289Z" stroke="url(#paint15_linear_24_7)" stroke-width="11" stroke-linecap="round" style="mix-blend-mode:plus-lighter"/>
</g>
<g style="mix-blend-mode:hard-light" opacity="0.15">
<path d="M1211.26 742.203C1202.3 742.545 1195.55 721.499 1184.79 732.587C1174.02 743.675 1167.15 728.957 1158.16 728.957M1200.94 709.821C1192.85 710.049 1186.75 696.023 1177.03 703.412C1167.31 710.802 1161.12 700.993 1153 700.993M1094.74 742.203C1103.7 742.545 1110.45 721.499 1121.21 732.587C1131.98 743.675 1138.85 728.957 1147.84 728.957M1100.27 709.456C1109.23 709.826 1115.76 695.851 1126.41 703.411C1137.06 710.971 1144.08 701.273 1153.07 701.416M1153 817.632C1155.19 815.914 1152.71 682.033 1152.26 673.765C1151.81 665.497 1153.42 662.305 1155.86 656.84M1157.79 655C1163.69 680.02 1212 700.257 1212 737.052C1212 773.847 1182.5 803.282 1153 818C1123.5 803.282 1094 773.847 1094 737.052C1094 700.257 1127.56 662.727 1157.79 655ZM1140.13 767.648L1132.62 760.155C1131.24 758.775 1129 758.775 1127.61 760.155L1120.1 767.648C1118.72 769.027 1118.72 771.264 1120.1 772.643L1127.61 780.136C1129 781.516 1131.24 781.516 1132.62 780.136L1140.13 772.643C1141.51 771.264 1141.51 769.027 1140.13 767.648ZM1188.02 767.648L1180.51 760.155C1179.13 758.775 1176.89 758.775 1175.51 760.155L1168 767.648C1166.61 769.027 1166.61 771.264 1168 772.643L1175.51 780.136C1176.89 781.516 1179.13 781.516 1180.51 780.136L1188.02 772.643C1189.4 771.264 1189.4 769.027 1188.02 767.648Z" stroke="url(#paint16_linear_24_7)" stroke-width="11" stroke-linecap="round" style="mix-blend-mode:plus-lighter"/>
</g>
<g style="mix-blend-mode:exclusion" opacity="0.15">
<path d="M1003.26 742.203C994.3 742.545 987.553 721.499 976.786 732.587C966.019 743.675 959.154 728.957 950.162 728.957M992.938 709.821C984.847 710.049 978.755 696.023 969.035 703.412C959.315 710.802 953.117 700.993 945 700.993M886.738 742.203C895.7 742.545 902.447 721.499 913.214 732.587C923.981 743.675 930.846 728.957 939.838 728.957M892.269 709.456C901.226 709.826 907.761 695.851 918.409 703.411C929.056 710.971 936.077 701.273 945.067 701.416M945 817.632C947.19 815.914 944.71 682.033 944.26 673.765C943.811 665.497 945.424 662.305 947.857 656.84M949.794 655C955.694 680.02 1004 700.257 1004 737.052C1004 773.847 974.5 803.282 945 818C915.5 803.282 886 773.847 886 737.052C886 700.257 919.556 662.727 949.794 655ZM932.128 767.648L924.619 760.155C923.236 758.775 920.995 758.775 919.613 760.155L912.103 767.648C910.721 769.027 910.721 771.264 912.103 772.643L919.613 780.136C920.995 781.516 923.236 781.516 924.619 780.136L932.128 772.643C933.511 771.264 933.511 769.027 932.128 767.648ZM980.023 767.648L972.513 760.155C971.131 758.775 968.889 758.775 967.507 760.155L959.997 767.648C958.615 769.027 958.615 771.264 959.997 772.643L967.507 780.136C968.889 781.516 971.131 781.516 972.513 780.136L980.022 772.643C981.405 771.264 981.405 769.027 980.023 767.648Z" stroke="url(#paint17_linear_24_7)" stroke-width="11" stroke-linecap="round" style="mix-blend-mode:plus-lighter"/>
</g>
<g style="mix-blend-mode:exclusion" opacity="0.15">
<path d="M379.263 531.203C370.3 531.545 363.553 510.499 352.786 521.587C342.019 532.675 335.154 517.957 326.162 517.957M368.938 498.821C360.847 499.049 354.755 485.023 345.035 492.412C335.315 499.802 329.117 489.993 321 489.993M262.738 531.203C271.7 531.545 278.447 510.499 289.214 521.587C299.981 532.675 306.846 517.957 315.838 517.957M268.269 498.456C277.226 498.826 283.761 484.851 294.409 492.411C305.056 499.971 312.077 490.273 321.067 490.416M321 606.632C323.19 604.914 320.71 471.033 320.26 462.765C319.811 454.497 321.424 451.305 323.857 445.84M325.794 444C331.694 469.02 380 489.257 380 526.052C380 562.847 350.5 592.282 321 607C291.5 592.282 262 562.847 262 526.052C262 489.257 295.556 451.727 325.794 444ZM308.128 556.648L300.619 549.155C299.236 547.775 296.995 547.775 295.613 549.155L288.103 556.648C286.721 558.027 286.721 560.264 288.103 561.643L295.613 569.136C296.995 570.516 299.236 570.516 300.619 569.136L308.128 561.643C309.511 560.264 309.511 558.027 308.128 556.648ZM356.023 556.648L348.513 549.155C347.131 547.775 344.889 547.775 343.507 549.155L335.997 556.648C334.615 558.027 334.615 560.264 335.997 561.643L343.507 569.136C344.889 570.516 347.131 570.516 348.513 569.136L356.022 561.643C357.405 560.264 357.405 558.027 356.023 556.648Z" stroke="url(#paint18_linear_24_7)" stroke-width="11" stroke-linecap="round" style="mix-blend-mode:plus-lighter"/>
</g>
<g style="mix-blend-mode:hard-light" opacity="0.15">
<path d="M171.263 531.203C162.3 531.545 155.553 510.499 144.786 521.587C134.019 532.675 127.154 517.957 118.162 517.957M160.938 498.821C152.847 499.049 146.755 485.023 137.035 492.412C127.315 499.802 121.117 489.993 113 489.993M54.7375 531.203C63.6995 531.545 70.4475 510.499 81.2144 521.587C91.9813 532.675 98.846 517.957 107.838 517.957M60.2688 498.456C69.226 498.826 75.7611 484.851 86.4087 492.411C97.0563 499.971 104.077 490.273 113.067 490.416M113 606.632C115.19 604.914 112.71 471.033 112.26 462.765C111.811 454.497 113.424 451.305 115.857 445.84M117.794 444C123.694 469.02 172 489.257 172 526.052C172 562.847 142.5 592.282 113 607C83.5 592.282 54 562.847 54 526.052C54 489.257 87.5562 451.727 117.794 444ZM100.128 556.648L92.6189 549.155C91.2365 547.775 88.9951 547.775 87.6126 549.155L80.1032 556.648C78.7207 558.027 78.7207 560.264 80.1032 561.643L87.6126 569.136C88.9951 570.516 91.2365 570.516 92.6189 569.136L100.128 561.643C101.511 560.264 101.511 558.027 100.128 556.648ZM148.023 556.648L140.513 549.155C139.131 547.775 136.889 547.775 135.507 549.155L127.997 556.648C126.615 558.027 126.615 560.264 127.997 561.643L135.507 569.136C136.889 570.516 139.131 570.516 140.513 569.136L148.022 561.643C149.405 560.264 149.405 558.027 148.023 556.648Z" stroke="url(#paint19_linear_24_7)" stroke-width="11" stroke-linecap="round" style="mix-blend-mode:plus-lighter"/>
</g>
<g style="mix-blend-mode:exclusion" opacity="0.15">
<path d="M774.165 570.731C767.586 564.635 777.696 544.982 762.243 545.209C746.789 545.436 752.342 530.175 745.984 523.817M789.762 540.532C783.879 534.972 789.49 520.746 777.391 519.099C765.293 517.451 767.847 506.133 762.107 500.393M691.769 488.335C697.864 494.914 717.518 484.803 717.291 500.257C717.064 515.711 732.325 510.158 738.683 516.516M718.836 469.09C724.908 475.686 739.411 470.425 741.594 483.3C743.777 496.175 755.599 494.281 761.856 500.739M679.631 582.869C682.394 583.203 775.308 486.781 780.837 480.617C786.365 474.452 789.764 473.336 795.349 471.192M798.019 471.261C784.499 493.124 804.347 541.592 778.329 567.61C752.311 593.627 710.637 593.582 679.371 583.129C668.918 551.863 668.872 510.189 694.89 484.171C720.908 458.153 771.174 455.343 798.019 471.261ZM705.873 538.423L705.862 527.815C705.86 525.862 704.275 524.277 702.322 524.275L691.713 524.263C689.76 524.261 688.179 525.843 688.181 527.795L688.193 538.404C688.195 540.357 689.78 541.942 691.733 541.944L702.341 541.955C704.294 541.958 705.876 540.376 705.873 538.423ZM739.74 572.289L739.728 561.681C739.726 559.728 738.141 558.143 736.188 558.141L725.58 558.129C723.627 558.127 722.045 559.709 722.047 561.662L722.059 572.27C722.061 574.223 723.646 575.808 725.599 575.81L736.207 575.822C738.16 575.824 739.742 574.242 739.74 572.289Z" stroke="url(#paint20_linear_24_7)" stroke-width="11" stroke-linecap="round" style="mix-blend-mode:plus-lighter"/>
</g>
<g style="mix-blend-mode:exclusion" opacity="0.15">
<path d="M574.231 488.335C568.135 494.914 548.482 484.803 548.709 500.257C548.936 515.711 533.675 510.158 527.317 516.516M544.032 472.738C538.472 478.62 524.247 473.01 522.599 485.108C520.951 497.207 509.633 494.653 503.893 500.393M491.835 570.731C498.414 564.635 488.303 544.982 503.757 545.209C519.211 545.436 513.658 530.175 520.016 523.817M472.59 543.664C479.186 537.592 473.925 523.089 486.8 520.906C499.675 518.722 497.781 506.9 504.239 500.644M586.369 582.869C586.703 580.105 490.281 487.192 484.117 481.663C477.953 476.134 476.836 472.736 474.692 467.151M474.761 464.481C496.625 478.001 545.092 458.153 571.11 484.171C597.127 510.189 597.082 551.862 586.629 583.129C555.363 593.582 513.689 593.627 487.671 567.61C461.653 541.592 458.843 491.326 474.761 464.481ZM541.923 556.626L531.315 556.638C529.362 556.64 527.777 558.225 527.775 560.178L527.763 570.786C527.761 572.739 529.343 574.321 531.296 574.319L541.904 574.307C543.857 574.305 545.442 572.72 545.444 570.767L545.456 560.159C545.458 558.206 543.876 556.624 541.923 556.626ZM575.789 522.76L565.181 522.772C563.228 522.774 561.643 524.359 561.641 526.312L561.629 536.92C561.627 538.873 563.209 540.454 565.162 540.452L575.77 540.441C577.723 540.439 579.308 538.854 579.31 536.901L579.322 526.292C579.324 524.339 577.742 522.758 575.789 522.76Z" stroke="url(#paint21_linear_24_7)" stroke-width="11" stroke-linecap="round" style="mix-blend-mode:plus-lighter"/>
</g>
<g style="mix-blend-mode:hard-light" opacity="0.15">
<path d="M1211.26 531.203C1202.3 531.545 1195.55 510.499 1184.79 521.587C1174.02 532.675 1167.15 517.957 1158.16 517.957M1200.94 498.821C1192.85 499.049 1186.75 485.023 1177.03 492.412C1167.31 499.802 1161.12 489.993 1153 489.993M1094.74 531.203C1103.7 531.545 1110.45 510.499 1121.21 521.587C1131.98 532.675 1138.85 517.957 1147.84 517.957M1100.27 498.456C1109.23 498.826 1115.76 484.851 1126.41 492.411C1137.06 499.971 1144.08 490.273 1153.07 490.416M1153 606.632C1155.19 604.914 1152.71 471.033 1152.26 462.765C1151.81 454.497 1153.42 451.305 1155.86 445.84M1157.79 444C1163.69 469.02 1212 489.257 1212 526.052C1212 562.847 1182.5 592.282 1153 607C1123.5 592.282 1094 562.847 1094 526.052C1094 489.257 1127.56 451.727 1157.79 444ZM1140.13 556.648L1132.62 549.155C1131.24 547.775 1129 547.775 1127.61 549.155L1120.1 556.648C1118.72 558.027 1118.72 560.264 1120.1 561.643L1127.61 569.136C1129 570.516 1131.24 570.516 1132.62 569.136L1140.13 561.643C1141.51 560.264 1141.51 558.027 1140.13 556.648ZM1188.02 556.648L1180.51 549.155C1179.13 547.775 1176.89 547.775 1175.51 549.155L1168 556.648C1166.61 558.027 1166.61 560.264 1168 561.643L1175.51 569.136C1176.89 570.516 1179.13 570.516 1180.51 569.136L1188.02 561.643C1189.4 560.264 1189.4 558.027 1188.02 556.648Z" stroke="url(#paint22_linear_24_7)" stroke-width="11" stroke-linecap="round" style="mix-blend-mode:plus-lighter"/>
</g>
<g style="mix-blend-mode:exclusion" opacity="0.15">
<path d="M1003.26 531.203C994.3 531.545 987.553 510.499 976.786 521.587C966.019 532.675 959.154 517.957 950.162 517.957M992.938 498.821C984.847 499.049 978.755 485.023 969.035 492.412C959.315 499.802 953.117 489.993 945 489.993M886.738 531.203C895.7 531.545 902.447 510.499 913.214 521.587C923.981 532.675 930.846 517.957 939.838 517.957M892.269 498.456C901.226 498.826 907.761 484.851 918.409 492.411C929.056 499.971 936.077 490.273 945.067 490.416M945 606.632C947.19 604.914 944.71 471.033 944.26 462.765C943.811 454.497 945.424 451.305 947.857 445.84M949.794 444C955.694 469.02 1004 489.257 1004 526.052C1004 562.847 974.5 592.282 945 607C915.5 592.282 886 562.847 886 526.052C886 489.257 919.556 451.727 949.794 444ZM932.128 556.648L924.619 549.155C923.236 547.775 920.995 547.775 919.613 549.155L912.103 556.648C910.721 558.027 910.721 560.264 912.103 561.643L919.613 569.136C920.995 570.516 923.236 570.516 924.619 569.136L932.128 561.643C933.511 560.264 933.511 558.027 932.128 556.648ZM980.023 556.648L972.513 549.155C971.131 547.775 968.889 547.775 967.507 549.155L959.997 556.648C958.615 558.027 958.615 560.264 959.997 561.643L967.507 569.136C968.889 570.516 971.131 570.516 972.513 569.136L980.022 561.643C981.405 560.264 981.405 558.027 980.023 556.648Z" stroke="url(#paint23_linear_24_7)" stroke-width="11" stroke-linecap="round" style="mix-blend-mode:plus-lighter"/>
</g>
<g style="mix-blend-mode:exclusion" opacity="0.15">
<path d="M379.263 1162.2C370.3 1162.55 363.553 1141.5 352.786 1152.59C342.019 1163.67 335.154 1148.96 326.162 1148.96M368.938 1129.82C360.847 1130.05 354.755 1116.02 345.035 1123.41C335.315 1130.8 329.117 1120.99 321 1120.99M262.738 1162.2C271.7 1162.55 278.447 1141.5 289.214 1152.59C299.981 1163.67 306.846 1148.96 315.838 1148.96M268.269 1129.46C277.226 1129.83 283.761 1115.85 294.409 1123.41C305.056 1130.97 312.077 1121.27 321.067 1121.42M321 1237.63C323.19 1235.91 320.71 1102.03 320.26 1093.77C319.811 1085.5 321.424 1082.3 323.857 1076.84M325.794 1075C331.694 1100.02 380 1120.26 380 1157.05C380 1193.85 350.5 1223.28 321 1238C291.5 1223.28 262 1193.85 262 1157.05C262 1120.26 295.556 1082.73 325.794 1075ZM308.128 1187.65L300.619 1180.15C299.236 1178.78 296.995 1178.78 295.613 1180.15L288.103 1187.65C286.721 1189.03 286.721 1191.26 288.103 1192.64L295.613 1200.14C296.995 1201.52 299.236 1201.52 300.619 1200.14L308.128 1192.64C309.511 1191.26 309.511 1189.03 308.128 1187.65ZM356.023 1187.65L348.513 1180.15C347.131 1178.78 344.889 1178.78 343.507 1180.15L335.997 1187.65C334.615 1189.03 334.615 1191.26 335.997 1192.64L343.507 1200.14C344.889 1201.52 347.131 1201.52 348.513 1200.14L356.022 1192.64C357.405 1191.26 357.405 1189.03 356.023 1187.65Z" stroke="url(#paint24_linear_24_7)" stroke-width="11" stroke-linecap="round" style="mix-blend-mode:plus-lighter"/>
</g>
<g style="mix-blend-mode:hard-light" opacity="0.15">
<path d="M150.165 1201.73C143.586 1195.64 153.697 1175.98 138.243 1176.21C122.789 1176.44 128.342 1161.17 121.984 1154.82M165.762 1171.53C159.88 1165.97 165.49 1151.75 153.392 1150.1C141.293 1148.45 143.847 1137.13 138.107 1131.39M67.7696 1119.34C73.8649 1125.91 93.5184 1115.8 93.2913 1131.26C93.0642 1146.71 108.325 1141.16 114.683 1147.52M94.8365 1100.09C100.908 1106.69 115.411 1101.43 117.594 1114.3C119.778 1127.17 131.6 1125.28 137.856 1131.74M55.6311 1213.87C58.3946 1214.2 151.309 1117.78 156.837 1111.62C162.366 1105.45 165.764 1104.34 171.349 1102.19M174.019 1102.26C160.499 1124.12 180.347 1172.59 154.329 1198.61C128.311 1224.63 86.6377 1224.58 55.3709 1214.13C44.9183 1182.86 44.8729 1141.19 70.8906 1115.17C96.9083 1089.15 147.174 1086.34 174.019 1102.26ZM81.8738 1169.42L81.8622 1158.81C81.8601 1156.86 80.2752 1155.28 78.3222 1155.27L67.7138 1155.26C65.7609 1155.26 64.1794 1156.84 64.1815 1158.8L64.1931 1169.4C64.1952 1171.36 65.7801 1172.94 67.7331 1172.94L78.3415 1172.96C80.2945 1172.96 81.8759 1171.38 81.8738 1169.42ZM115.74 1203.29L115.728 1192.68C115.726 1190.73 114.141 1189.14 112.188 1189.14L101.58 1189.13C99.6271 1189.13 98.0456 1190.71 98.0478 1192.66L98.0593 1203.27C98.0615 1205.22 99.6464 1206.81 101.599 1206.81L112.208 1206.82C114.161 1206.82 115.742 1205.24 115.74 1203.29Z" stroke="url(#paint25_linear_24_7)" stroke-width="11" stroke-linecap="round" style="mix-blend-mode:plus-lighter"/>
</g>
<g style="mix-blend-mode:hard-light" opacity="0.15">
<path d="M795.263 1162.2C786.3 1162.55 779.553 1141.5 768.786 1152.59C758.019 1163.67 751.154 1148.96 742.162 1148.96M784.938 1129.82C776.847 1130.05 770.755 1116.02 761.035 1123.41C751.315 1130.8 745.117 1120.99 737 1120.99M678.738 1162.2C687.7 1162.55 694.447 1141.5 705.214 1152.59C715.981 1163.67 722.846 1148.96 731.838 1148.96M684.269 1129.46C693.226 1129.83 699.761 1115.85 710.409 1123.41C721.056 1130.97 728.077 1121.27 737.067 1121.42M737 1237.63C739.19 1235.91 736.71 1102.03 736.26 1093.77C735.811 1085.5 737.424 1082.3 739.857 1076.84M741.794 1075C747.694 1100.02 796 1120.26 796 1157.05C796 1193.85 766.5 1223.28 737 1238C707.5 1223.28 678 1193.85 678 1157.05C678 1120.26 711.556 1082.73 741.794 1075ZM724.128 1187.65L716.619 1180.15C715.236 1178.78 712.995 1178.78 711.613 1180.15L704.103 1187.65C702.721 1189.03 702.721 1191.26 704.103 1192.64L711.613 1200.14C712.995 1201.52 715.236 1201.52 716.619 1200.14L724.128 1192.64C725.511 1191.26 725.511 1189.03 724.128 1187.65ZM772.023 1187.65L764.513 1180.15C763.131 1178.78 760.889 1178.78 759.507 1180.15L751.997 1187.65C750.615 1189.03 750.615 1191.26 751.997 1192.64L759.507 1200.14C760.889 1201.52 763.131 1201.52 764.513 1200.14L772.022 1192.64C773.405 1191.26 773.405 1189.03 772.023 1187.65Z" stroke="url(#paint26_linear_24_7)" stroke-width="11" stroke-linecap="round" style="mix-blend-mode:plus-lighter"/>
</g>
<g style="mix-blend-mode:hard-light" opacity="0.15">
<path d="M587.263 1162.2C578.3 1162.55 571.553 1141.5 560.786 1152.59C550.019 1163.67 543.154 1148.96 534.162 1148.96M576.938 1129.82C568.847 1130.05 562.755 1116.02 553.035 1123.41C543.315 1130.8 537.117 1120.99 529 1120.99M470.738 1162.2C479.7 1162.55 486.447 1141.5 497.214 1152.59C507.981 1163.67 514.846 1148.96 523.838 1148.96M476.269 1129.46C485.226 1129.83 491.761 1115.85 502.409 1123.41C513.056 1130.97 520.077 1121.27 529.067 1121.42M529 1237.63C531.19 1235.91 528.71 1102.03 528.26 1093.77C527.811 1085.5 529.424 1082.3 531.857 1076.84M533.794 1075C539.694 1100.02 588 1120.26 588 1157.05C588 1193.85 558.5 1223.28 529 1238C499.5 1223.28 470 1193.85 470 1157.05C470 1120.26 503.556 1082.73 533.794 1075ZM516.128 1187.65L508.619 1180.15C507.236 1178.78 504.995 1178.78 503.613 1180.15L496.103 1187.65C494.721 1189.03 494.721 1191.26 496.103 1192.64L503.613 1200.14C504.995 1201.52 507.236 1201.52 508.619 1200.14L516.128 1192.64C517.511 1191.26 517.511 1189.03 516.128 1187.65ZM564.023 1187.65L556.513 1180.15C555.131 1178.78 552.889 1178.78 551.507 1180.15L543.997 1187.65C542.615 1189.03 542.615 1191.26 543.997 1192.64L551.507 1200.14C552.889 1201.52 555.131 1201.52 556.513 1200.14L564.022 1192.64C565.405 1191.26 565.405 1189.03 564.023 1187.65Z" stroke="url(#paint27_linear_24_7)" stroke-width="11" stroke-linecap="round" style="mix-blend-mode:plus-lighter"/>
</g>
<g style="mix-blend-mode:hard-light" opacity="0.15">
<path d="M1198.23 1119.33C1192.14 1125.91 1172.48 1115.8 1172.71 1131.26C1172.94 1146.71 1157.67 1141.16 1151.32 1147.52M1168.03 1103.74C1162.47 1109.62 1148.25 1104.01 1146.6 1116.11C1144.95 1128.21 1133.63 1125.65 1127.89 1131.39M1115.83 1201.73C1122.41 1195.64 1112.3 1175.98 1127.76 1176.21C1143.21 1176.44 1137.66 1161.17 1144.02 1154.82M1096.59 1174.66C1103.19 1168.59 1097.93 1154.09 1110.8 1151.91C1123.67 1149.72 1121.78 1137.9 1128.24 1131.64M1210.37 1213.87C1210.7 1211.11 1114.28 1118.19 1108.12 1112.66C1101.95 1107.13 1100.84 1103.74 1098.69 1098.15M1098.76 1095.48C1120.62 1109 1169.09 1089.15 1195.11 1115.17C1221.13 1141.19 1221.08 1182.86 1210.63 1214.13C1179.36 1224.58 1137.69 1224.63 1111.67 1198.61C1085.65 1172.59 1082.84 1122.33 1098.76 1095.48ZM1165.92 1187.63L1155.31 1187.64C1153.36 1187.64 1151.78 1189.22 1151.77 1191.18L1151.76 1201.79C1151.76 1203.74 1153.34 1205.32 1155.3 1205.32L1165.9 1205.31C1167.86 1205.3 1169.44 1203.72 1169.44 1201.77L1169.46 1191.16C1169.46 1189.21 1167.88 1187.62 1165.92 1187.63ZM1199.79 1153.76L1189.18 1153.77C1187.23 1153.77 1185.64 1155.36 1185.64 1157.31L1185.63 1167.92C1185.63 1169.87 1187.21 1171.45 1189.16 1171.45L1199.77 1171.44C1201.72 1171.44 1203.31 1169.85 1203.31 1167.9L1203.32 1157.29C1203.32 1155.34 1201.74 1153.76 1199.79 1153.76Z" stroke="url(#paint28_linear_24_7)" stroke-width="11" stroke-linecap="round" style="mix-blend-mode:plus-lighter"/>
</g>
<g style="mix-blend-mode:exclusion" opacity="0.15">
<path d="M1003.26 1162.2C994.3 1162.55 987.553 1141.5 976.786 1152.59C966.019 1163.67 959.154 1148.96 950.162 1148.96M992.938 1129.82C984.847 1130.05 978.755 1116.02 969.035 1123.41C959.315 1130.8 953.117 1120.99 945 1120.99M886.738 1162.2C895.7 1162.55 902.447 1141.5 913.214 1152.59C923.981 1163.67 930.846 1148.96 939.838 1148.96M892.269 1129.46C901.226 1129.83 907.761 1115.85 918.409 1123.41C929.056 1130.97 936.077 1121.27 945.067 1121.42M945 1237.63C947.19 1235.91 944.71 1102.03 944.26 1093.77C943.811 1085.5 945.424 1082.3 947.857 1076.84M949.794 1075C955.694 1100.02 1004 1120.26 1004 1157.05C1004 1193.85 974.5 1223.28 945 1238C915.5 1223.28 886 1193.85 886 1157.05C886 1120.26 919.556 1082.73 949.794 1075ZM932.128 1187.65L924.619 1180.15C923.236 1178.78 920.995 1178.78 919.613 1180.15L912.103 1187.65C910.721 1189.03 910.721 1191.26 912.103 1192.64L919.613 1200.14C920.995 1201.52 923.236 1201.52 924.619 1200.14L932.128 1192.64C933.511 1191.26 933.511 1189.03 932.128 1187.65ZM980.023 1187.65L972.513 1180.15C971.131 1178.78 968.889 1178.78 967.507 1180.15L959.997 1187.65C958.615 1189.03 958.615 1191.26 959.997 1192.64L967.507 1200.14C968.889 1201.52 971.131 1201.52 972.513 1200.14L980.022 1192.64C981.405 1191.26 981.405 1189.03 980.023 1187.65Z" stroke="url(#paint29_linear_24_7)" stroke-width="11" stroke-linecap="round" style="mix-blend-mode:plus-lighter"/>
</g>
<g style="mix-blend-mode:hard-light" opacity="0.15">
<path d="M358.165 990.731C351.586 984.635 361.697 964.982 346.243 965.209C330.789 965.436 336.342 950.175 329.984 943.817M373.762 960.532C367.88 954.972 373.49 940.746 361.392 939.099C349.293 937.451 351.847 926.133 346.107 920.393M275.77 908.335C281.865 914.914 301.518 904.803 301.291 920.257C301.064 935.711 316.325 930.158 322.683 936.516M302.837 889.09C308.908 895.686 323.411 890.425 325.594 903.3C327.778 916.175 339.6 914.281 345.856 920.739M263.631 1002.87C266.395 1003.2 359.309 906.781 364.837 900.617C370.366 894.452 373.764 893.336 379.349 891.192M382.019 891.26C368.499 913.124 388.347 961.592 362.329 987.61C336.311 1013.63 294.638 1013.58 263.371 1003.13C252.918 971.862 252.873 930.189 278.891 904.171C304.908 878.153 355.174 875.343 382.019 891.26ZM289.874 958.423L289.862 947.815C289.86 945.862 288.275 944.277 286.322 944.275L275.714 944.263C273.761 944.261 272.179 945.842 272.182 947.795L272.193 958.404C272.195 960.357 273.78 961.942 275.733 961.944L286.342 961.955C288.294 961.958 289.876 960.376 289.874 958.423ZM323.74 992.289L323.728 981.681C323.726 979.728 322.141 978.143 320.188 978.141L309.58 978.129C307.627 978.127 306.046 979.709 306.048 981.662L306.059 992.27C306.061 994.223 307.646 995.808 309.599 995.81L320.208 995.822C322.161 995.824 323.742 994.242 323.74 992.289Z" stroke="url(#paint30_linear_24_7)" stroke-width="11" stroke-linecap="round" style="mix-blend-mode:plus-lighter"/>
</g>
<g style="mix-blend-mode:exclusion" opacity="0.15">
<path d="M171.263 951.203C162.3 951.545 155.553 930.499 144.786 941.587C134.019 952.675 127.154 937.957 118.162 937.957M160.938 918.821C152.847 919.049 146.755 905.023 137.035 912.412C127.315 919.802 121.117 909.993 113 909.993M54.7375 951.203C63.6995 951.545 70.4475 930.499 81.2144 941.587C91.9813 952.675 98.846 937.957 107.838 937.957M60.2688 918.456C69.226 918.826 75.7611 904.851 86.4087 912.411C97.0563 919.971 104.077 910.273 113.067 910.416M113 1026.63C115.19 1024.91 112.71 891.033 112.26 882.765C111.811 874.497 113.424 871.305 115.857 865.84M117.794 864C123.694 889.02 172 909.257 172 946.052C172 982.847 142.5 1012.28 113 1027C83.5 1012.28 54 982.847 54 946.052C54 909.257 87.5562 871.727 117.794 864ZM100.128 976.648L92.6189 969.155C91.2365 967.775 88.9951 967.775 87.6126 969.155L80.1032 976.648C78.7207 978.027 78.7207 980.264 80.1032 981.643L87.6126 989.136C88.9951 990.516 91.2365 990.516 92.6189 989.136L100.128 981.643C101.511 980.264 101.511 978.027 100.128 976.648ZM148.023 976.648L140.513 969.155C139.131 967.775 136.889 967.775 135.507 969.155L127.997 976.648C126.615 978.027 126.615 980.264 127.997 981.643L135.507 989.136C136.889 990.516 139.131 990.516 140.513 989.136L148.022 981.643C149.405 980.264 149.405 978.027 148.023 976.648Z" stroke="url(#paint31_linear_24_7)" stroke-width="11" stroke-linecap="round" style="mix-blend-mode:plus-lighter"/>
</g>
<g style="mix-blend-mode:exclusion" opacity="0.15">
<path d="M795.263 951.203C786.3 951.545 779.553 930.499 768.786 941.587C758.019 952.675 751.154 937.957 742.162 937.957M784.938 918.821C776.847 919.049 770.755 905.023 761.035 912.412C751.315 919.802 745.117 909.993 737 909.993M678.738 951.203C687.7 951.545 694.447 930.499 705.214 941.587C715.981 952.675 722.846 937.957 731.838 937.957M684.269 918.456C693.226 918.826 699.761 904.851 710.409 912.411C721.056 919.971 728.077 910.273 737.067 910.416M737 1026.63C739.19 1024.91 736.71 891.033 736.26 882.765C735.811 874.497 737.424 871.305 739.857 865.84M741.794 864C747.694 889.02 796 909.257 796 946.052C796 982.847 766.5 1012.28 737 1027C707.5 1012.28 678 982.847 678 946.052C678 909.257 711.556 871.727 741.794 864ZM724.128 976.648L716.619 969.155C715.236 967.775 712.995 967.775 711.613 969.155L704.103 976.648C702.721 978.027 702.721 980.264 704.103 981.643L711.613 989.136C712.995 990.516 715.236 990.516 716.619 989.136L724.128 981.643C725.511 980.264 725.511 978.027 724.128 976.648ZM772.023 976.648L764.513 969.155C763.131 967.775 760.889 967.775 759.507 969.155L751.997 976.648C750.615 978.027 750.615 980.264 751.997 981.643L759.507 989.136C760.889 990.516 763.131 990.516 764.513 989.136L772.022 981.643C773.405 980.264 773.405 978.027 772.023 976.648Z" stroke="url(#paint32_linear_24_7)" stroke-width="11" stroke-linecap="round" style="mix-blend-mode:plus-lighter"/>
</g>
<g style="mix-blend-mode:exclusion" opacity="0.15">
<path d="M587.263 951.203C578.3 951.545 571.553 930.499 560.786 941.587C550.019 952.675 543.154 937.957 534.162 937.957M576.938 918.821C568.847 919.049 562.755 905.023 553.035 912.412C543.315 919.802 537.117 909.993 529 909.993M470.738 951.203C479.7 951.545 486.447 930.499 497.214 941.587C507.981 952.675 514.846 937.957 523.838 937.957M476.269 918.456C485.226 918.826 491.761 904.851 502.409 912.411C513.056 919.971 520.077 910.273 529.067 910.416M529 1026.63C531.19 1024.91 528.71 891.033 528.26 882.765C527.811 874.497 529.424 871.305 531.857 865.84M533.794 864C539.694 889.02 588 909.257 588 946.052C588 982.847 558.5 1012.28 529 1027C499.5 1012.28 470 982.847 470 946.052C470 909.257 503.556 871.727 533.794 864ZM516.128 976.648L508.619 969.155C507.236 967.775 504.995 967.775 503.613 969.155L496.103 976.648C494.721 978.027 494.721 980.264 496.103 981.643L503.613 989.136C504.995 990.516 507.236 990.516 508.619 989.136L516.128 981.643C517.511 980.264 517.511 978.027 516.128 976.648ZM564.023 976.648L556.513 969.155C555.131 967.775 552.889 967.775 551.507 969.155L543.997 976.648C542.615 978.027 542.615 980.264 543.997 981.643L551.507 989.136C552.889 990.516 555.131 990.516 556.513 989.136L564.022 981.643C565.405 980.264 565.405 978.027 564.023 976.648Z" stroke="url(#paint33_linear_24_7)" stroke-width="11" stroke-linecap="round" style="mix-blend-mode:plus-lighter"/>
</g>
<g style="mix-blend-mode:exclusion" opacity="0.15">
<path d="M1211.26 951.203C1202.3 951.545 1195.55 930.499 1184.79 941.587C1174.02 952.675 1167.15 937.957 1158.16 937.957M1200.94 918.821C1192.85 919.049 1186.75 905.023 1177.03 912.412C1167.31 919.802 1161.12 909.993 1153 909.993M1094.74 951.203C1103.7 951.545 1110.45 930.499 1121.21 941.587C1131.98 952.675 1138.85 937.957 1147.84 937.957M1100.27 918.456C1109.23 918.826 1115.76 904.851 1126.41 912.411C1137.06 919.971 1144.08 910.273 1153.07 910.416M1153 1026.63C1155.19 1024.91 1152.71 891.033 1152.26 882.765C1151.81 874.497 1153.42 871.305 1155.86 865.84M1157.79 864C1163.69 889.02 1212 909.257 1212 946.052C1212 982.847 1182.5 1012.28 1153 1027C1123.5 1012.28 1094 982.847 1094 946.052C1094 909.257 1127.56 871.727 1157.79 864ZM1140.13 976.648L1132.62 969.155C1131.24 967.775 1129 967.775 1127.61 969.155L1120.1 976.648C1118.72 978.027 1118.72 980.264 1120.1 981.643L1127.61 989.136C1129 990.516 1131.24 990.516 1132.62 989.136L1140.13 981.643C1141.51 980.264 1141.51 978.027 1140.13 976.648ZM1188.02 976.648L1180.51 969.155C1179.13 967.775 1176.89 967.775 1175.51 969.155L1168 976.648C1166.61 978.027 1166.61 980.264 1168 981.643L1175.51 989.136C1176.89 990.516 1179.13 990.516 1180.51 989.136L1188.02 981.643C1189.4 980.264 1189.4 978.027 1188.02 976.648Z" stroke="url(#paint34_linear_24_7)" stroke-width="11" stroke-linecap="round" style="mix-blend-mode:plus-lighter"/>
</g>
<g style="mix-blend-mode:hard-light" opacity="0.15">
<path d="M990.231 908.335C984.135 914.914 964.482 904.803 964.709 920.257C964.936 935.711 949.675 930.158 943.317 936.516M960.032 892.738C954.472 898.62 940.247 893.01 938.599 905.108C936.951 917.207 925.633 914.653 919.893 920.393M907.835 990.731C914.414 984.635 904.303 964.982 919.757 965.209C935.211 965.436 929.658 950.175 936.016 943.817M888.59 963.664C895.186 957.592 889.925 943.089 902.8 940.906C915.675 938.722 913.781 926.9 920.239 920.644M1002.37 1002.87C1002.7 1000.11 906.281 907.192 900.117 901.663C893.953 896.134 892.836 892.736 890.692 887.151M890.761 884.481C912.625 898.001 961.092 878.153 987.11 904.171C1013.13 930.189 1013.08 971.862 1002.63 1003.13C971.363 1013.58 929.689 1013.63 903.671 987.61C877.653 961.592 874.843 911.326 890.761 884.481ZM957.923 976.626L947.315 976.638C945.362 976.64 943.777 978.225 943.775 980.178L943.763 990.786C943.761 992.739 945.343 994.321 947.296 994.319L957.904 994.307C959.857 994.305 961.442 992.72 961.444 990.767L961.456 980.159C961.458 978.206 959.876 976.624 957.923 976.626ZM991.789 942.76L981.181 942.772C979.228 942.774 977.643 944.359 977.641 946.312L977.629 956.92C977.627 958.873 979.209 960.454 981.162 960.452L991.77 960.441C993.723 960.439 995.308 958.854 995.31 956.901L995.322 946.292C995.324 944.339 993.742 942.758 991.789 942.76Z" stroke="url(#paint35_linear_24_7)" stroke-width="11" stroke-linecap="round" style="mix-blend-mode:plus-lighter"/>
</g>
<defs>
<linearGradient id="paint0_linear_24_7" x1="263.371" y1="253.871" x2="378.629" y2="369.129" gradientUnits="userSpaceOnUse">
<stop offset="0.0865384" stop-color="#668E28"/>
<stop offset="0.264423" stop-color="#5F8E15"/>
<stop offset="0.442308" stop-color="#557C19"/>
<stop offset="0.591346" stop-color="#4C7015"/>
<stop offset="0.745192" stop-color="#364E11"/>
<stop offset="0.903846" stop-color="#2D430B"/>
</linearGradient>
<linearGradient id="paint1_linear_24_7" x1="113" y1="230" x2="113" y2="393" gradientUnits="userSpaceOnUse">
<stop offset="0.0865384" stop-color="#939393"/>
<stop offset="0.264423" stop-color="white"/>
<stop offset="0.442308" stop-color="#DFDFDF"/>
<stop offset="0.591346" stop-color="#CFCFCF"/>
<stop offset="0.745192" stop-color="#A3A3A3"/>
<stop offset="0.903846" stop-color="#B1B1B1"/>
</linearGradient>
<linearGradient id="paint2_linear_24_7" x1="737" y1="230" x2="737" y2="393" gradientUnits="userSpaceOnUse">
<stop offset="0.0865384" stop-color="#939393"/>
<stop offset="0.264423" stop-color="white"/>
<stop offset="0.442308" stop-color="#DFDFDF"/>
<stop offset="0.591346" stop-color="#CFCFCF"/>
<stop offset="0.745192" stop-color="#A3A3A3"/>
<stop offset="0.903846" stop-color="#B1B1B1"/>
</linearGradient>
<linearGradient id="paint3_linear_24_7" x1="529" y1="230" x2="529" y2="393" gradientUnits="userSpaceOnUse">
<stop offset="0.0865384" stop-color="#939393"/>
<stop offset="0.264423" stop-color="white"/>
<stop offset="0.442308" stop-color="#DFDFDF"/>
<stop offset="0.591346" stop-color="#CFCFCF"/>
<stop offset="0.745192" stop-color="#A3A3A3"/>
<stop offset="0.903846" stop-color="#B1B1B1"/>
</linearGradient>
<linearGradient id="paint4_linear_24_7" x1="1153" y1="230" x2="1153" y2="393" gradientUnits="userSpaceOnUse">
<stop offset="0.0865384" stop-color="#939393"/>
<stop offset="0.264423" stop-color="white"/>
<stop offset="0.442308" stop-color="#DFDFDF"/>
<stop offset="0.591346" stop-color="#CFCFCF"/>
<stop offset="0.745192" stop-color="#A3A3A3"/>
<stop offset="0.903846" stop-color="#B1B1B1"/>
</linearGradient>
<linearGradient id="paint5_linear_24_7" x1="1002.63" y1="253.871" x2="887.371" y2="369.129" gradientUnits="userSpaceOnUse">
<stop offset="0.0865384" stop-color="#668E28"/>
<stop offset="0.264423" stop-color="#5F8E15"/>
<stop offset="0.442308" stop-color="#557C19"/>
<stop offset="0.591346" stop-color="#4C7015"/>
<stop offset="0.745192" stop-color="#364E11"/>
<stop offset="0.903846" stop-color="#2D430B"/>
</linearGradient>
<linearGradient id="paint6_linear_24_7" x1="321" y1="19" x2="321" y2="182" gradientUnits="userSpaceOnUse">
<stop offset="0.0865384" stop-color="#939393"/>
<stop offset="0.264423" stop-color="white"/>
<stop offset="0.442308" stop-color="#DFDFDF"/>
<stop offset="0.591346" stop-color="#CFCFCF"/>
<stop offset="0.745192" stop-color="#A3A3A3"/>
<stop offset="0.903846" stop-color="#B1B1B1"/>
</linearGradient>
<linearGradient id="paint7_linear_24_7" x1="55.3708" y1="42.8708" x2="170.629" y2="158.129" gradientUnits="userSpaceOnUse">
<stop offset="0.0865384" stop-color="#668E28"/>
<stop offset="0.264423" stop-color="#5F8E15"/>
<stop offset="0.442308" stop-color="#557C19"/>
<stop offset="0.591346" stop-color="#4C7015"/>
<stop offset="0.745192" stop-color="#364E11"/>
<stop offset="0.903846" stop-color="#2D430B"/>
</linearGradient>
<linearGradient id="paint8_linear_24_7" x1="737" y1="19" x2="737" y2="182" gradientUnits="userSpaceOnUse">
<stop offset="0.0865384" stop-color="#668E28"/>
<stop offset="0.264423" stop-color="#5F8E15"/>
<stop offset="0.442308" stop-color="#557C19"/>
<stop offset="0.591346" stop-color="#4C7015"/>
<stop offset="0.745192" stop-color="#364E11"/>
<stop offset="0.903846" stop-color="#2D430B"/>
</linearGradient>
<linearGradient id="paint9_linear_24_7" x1="529" y1="19" x2="529" y2="182" gradientUnits="userSpaceOnUse">
<stop offset="0.0865384" stop-color="#668E28"/>
<stop offset="0.264423" stop-color="#5F8E15"/>
<stop offset="0.442308" stop-color="#557C19"/>
<stop offset="0.591346" stop-color="#4C7015"/>
<stop offset="0.745192" stop-color="#364E11"/>
<stop offset="0.903846" stop-color="#2D430B"/>
</linearGradient>
<linearGradient id="paint10_linear_24_7" x1="1210.63" y1="42.8708" x2="1095.37" y2="158.129" gradientUnits="userSpaceOnUse">
<stop offset="0.0865384" stop-color="#668E28"/>
<stop offset="0.264423" stop-color="#5F8E15"/>
<stop offset="0.442308" stop-color="#557C19"/>
<stop offset="0.591346" stop-color="#4C7015"/>
<stop offset="0.745192" stop-color="#364E11"/>
<stop offset="0.903846" stop-color="#2D430B"/>
</linearGradient>
<linearGradient id="paint11_linear_24_7" x1="945" y1="19" x2="945" y2="182" gradientUnits="userSpaceOnUse">
<stop offset="0.0865384" stop-color="#939393"/>
<stop offset="0.264423" stop-color="white"/>
<stop offset="0.442308" stop-color="#DFDFDF"/>
<stop offset="0.591346" stop-color="#CFCFCF"/>
<stop offset="0.745192" stop-color="#A3A3A3"/>
<stop offset="0.903846" stop-color="#B1B1B1"/>
</linearGradient>
<linearGradient id="paint12_linear_24_7" x1="321" y1="655" x2="321" y2="818" gradientUnits="userSpaceOnUse">
<stop offset="0.0865384" stop-color="#939393"/>
<stop offset="0.264423" stop-color="white"/>
<stop offset="0.442308" stop-color="#DFDFDF"/>
<stop offset="0.591346" stop-color="#CFCFCF"/>
<stop offset="0.745192" stop-color="#A3A3A3"/>
<stop offset="0.903846" stop-color="#B1B1B1"/>
</linearGradient>
<linearGradient id="paint13_linear_24_7" x1="113" y1="655" x2="113" y2="818" gradientUnits="userSpaceOnUse">
<stop offset="0.0865384" stop-color="#668E28"/>
<stop offset="0.264423" stop-color="#5F8E15"/>
<stop offset="0.442308" stop-color="#557C19"/>
<stop offset="0.591346" stop-color="#4C7015"/>
<stop offset="0.745192" stop-color="#364E11"/>
<stop offset="0.903846" stop-color="#2D430B"/>
</linearGradient>
<linearGradient id="paint14_linear_24_7" x1="679.371" y1="678.871" x2="794.629" y2="794.129" gradientUnits="userSpaceOnUse">
<stop offset="0.0865384" stop-color="#939393"/>
<stop offset="0.264423" stop-color="white"/>
<stop offset="0.442308" stop-color="#DFDFDF"/>
<stop offset="0.591346" stop-color="#CFCFCF"/>
<stop offset="0.745192" stop-color="#A3A3A3"/>
<stop offset="0.903846" stop-color="#B1B1B1"/>
</linearGradient>
<linearGradient id="paint15_linear_24_7" x1="586.629" y1="678.871" x2="471.371" y2="794.129" gradientUnits="userSpaceOnUse">
<stop offset="0.0865384" stop-color="#939393"/>
<stop offset="0.264423" stop-color="white"/>
<stop offset="0.442308" stop-color="#DFDFDF"/>
<stop offset="0.591346" stop-color="#CFCFCF"/>
<stop offset="0.745192" stop-color="#A3A3A3"/>
<stop offset="0.903846" stop-color="#B1B1B1"/>
</linearGradient>
<linearGradient id="paint16_linear_24_7" x1="1153" y1="655" x2="1153" y2="818" gradientUnits="userSpaceOnUse">
<stop offset="0.0865384" stop-color="#668E28"/>
<stop offset="0.264423" stop-color="#5F8E15"/>
<stop offset="0.442308" stop-color="#557C19"/>
<stop offset="0.591346" stop-color="#4C7015"/>
<stop offset="0.745192" stop-color="#364E11"/>
<stop offset="0.903846" stop-color="#2D430B"/>
</linearGradient>
<linearGradient id="paint17_linear_24_7" x1="945" y1="655" x2="945" y2="818" gradientUnits="userSpaceOnUse">
<stop offset="0.0865384" stop-color="#939393"/>
<stop offset="0.264423" stop-color="white"/>
<stop offset="0.442308" stop-color="#DFDFDF"/>
<stop offset="0.591346" stop-color="#CFCFCF"/>
<stop offset="0.745192" stop-color="#A3A3A3"/>
<stop offset="0.903846" stop-color="#B1B1B1"/>
</linearGradient>
<linearGradient id="paint18_linear_24_7" x1="321" y1="444" x2="321" y2="607" gradientUnits="userSpaceOnUse">
<stop offset="0.0865384" stop-color="#939393"/>
<stop offset="0.264423" stop-color="white"/>
<stop offset="0.442308" stop-color="#DFDFDF"/>
<stop offset="0.591346" stop-color="#CFCFCF"/>
<stop offset="0.745192" stop-color="#A3A3A3"/>
<stop offset="0.903846" stop-color="#B1B1B1"/>
</linearGradient>
<linearGradient id="paint19_linear_24_7" x1="113" y1="444" x2="113" y2="607" gradientUnits="userSpaceOnUse">
<stop offset="0.0865384" stop-color="#668E28"/>
<stop offset="0.264423" stop-color="#5F8E15"/>
<stop offset="0.442308" stop-color="#557C19"/>
<stop offset="0.591346" stop-color="#4C7015"/>
<stop offset="0.745192" stop-color="#364E11"/>
<stop offset="0.903846" stop-color="#2D430B"/>
</linearGradient>
<linearGradient id="paint20_linear_24_7" x1="794.629" y1="467.871" x2="679.371" y2="583.129" gradientUnits="userSpaceOnUse">
<stop offset="0.0865384" stop-color="#939393"/>
<stop offset="0.264423" stop-color="white"/>
<stop offset="0.442308" stop-color="#DFDFDF"/>
<stop offset="0.591346" stop-color="#CFCFCF"/>
<stop offset="0.745192" stop-color="#A3A3A3"/>
<stop offset="0.903846" stop-color="#B1B1B1"/>
</linearGradient>
<linearGradient id="paint21_linear_24_7" x1="471.371" y1="467.871" x2="586.629" y2="583.129" gradientUnits="userSpaceOnUse">
<stop offset="0.0865384" stop-color="#939393"/>
<stop offset="0.264423" stop-color="white"/>
<stop offset="0.442308" stop-color="#DFDFDF"/>
<stop offset="0.591346" stop-color="#CFCFCF"/>
<stop offset="0.745192" stop-color="#A3A3A3"/>
<stop offset="0.903846" stop-color="#B1B1B1"/>
</linearGradient>
<linearGradient id="paint22_linear_24_7" x1="1153" y1="444" x2="1153" y2="607" gradientUnits="userSpaceOnUse">
<stop offset="0.0865384" stop-color="#668E28"/>
<stop offset="0.264423" stop-color="#5F8E15"/>
<stop offset="0.442308" stop-color="#557C19"/>
<stop offset="0.591346" stop-color="#4C7015"/>
<stop offset="0.745192" stop-color="#364E11"/>
<stop offset="0.903846" stop-color="#2D430B"/>
</linearGradient>
<linearGradient id="paint23_linear_24_7" x1="945" y1="444" x2="945" y2="607" gradientUnits="userSpaceOnUse">
<stop offset="0.0865384" stop-color="#939393"/>
<stop offset="0.264423" stop-color="white"/>
<stop offset="0.442308" stop-color="#DFDFDF"/>
<stop offset="0.591346" stop-color="#CFCFCF"/>
<stop offset="0.745192" stop-color="#A3A3A3"/>
<stop offset="0.903846" stop-color="#B1B1B1"/>
</linearGradient>
<linearGradient id="paint24_linear_24_7" x1="321" y1="1075" x2="321" y2="1238" gradientUnits="userSpaceOnUse">
<stop offset="0.0865384" stop-color="#939393"/>
<stop offset="0.264423" stop-color="white"/>
<stop offset="0.442308" stop-color="#DFDFDF"/>
<stop offset="0.591346" stop-color="#CFCFCF"/>
<stop offset="0.745192" stop-color="#A3A3A3"/>
<stop offset="0.903846" stop-color="#B1B1B1"/>
</linearGradient>
<linearGradient id="paint25_linear_24_7" x1="170.629" y1="1098.87" x2="55.3709" y2="1214.13" gradientUnits="userSpaceOnUse">
<stop offset="0.0865384" stop-color="#668E28"/>
<stop offset="0.264423" stop-color="#5F8E15"/>
<stop offset="0.442308" stop-color="#557C19"/>
<stop offset="0.591346" stop-color="#4C7015"/>
<stop offset="0.745192" stop-color="#364E11"/>
<stop offset="0.903846" stop-color="#2D430B"/>
</linearGradient>
<linearGradient id="paint26_linear_24_7" x1="737" y1="1075" x2="737" y2="1238" gradientUnits="userSpaceOnUse">
<stop offset="0.0865384" stop-color="#668E28"/>
<stop offset="0.264423" stop-color="#5F8E15"/>
<stop offset="0.442308" stop-color="#557C19"/>
<stop offset="0.591346" stop-color="#4C7015"/>
<stop offset="0.745192" stop-color="#364E11"/>
<stop offset="0.903846" stop-color="#2D430B"/>
</linearGradient>
<linearGradient id="paint27_linear_24_7" x1="529" y1="1075" x2="529" y2="1238" gradientUnits="userSpaceOnUse">
<stop offset="0.0865384" stop-color="#668E28"/>
<stop offset="0.264423" stop-color="#5F8E15"/>
<stop offset="0.442308" stop-color="#557C19"/>
<stop offset="0.591346" stop-color="#4C7015"/>
<stop offset="0.745192" stop-color="#364E11"/>
<stop offset="0.903846" stop-color="#2D430B"/>
</linearGradient>
<linearGradient id="paint28_linear_24_7" x1="1095.37" y1="1098.87" x2="1210.63" y2="1214.13" gradientUnits="userSpaceOnUse">
<stop offset="0.0865384" stop-color="#668E28"/>
<stop offset="0.264423" stop-color="#5F8E15"/>
<stop offset="0.442308" stop-color="#557C19"/>
<stop offset="0.591346" stop-color="#4C7015"/>
<stop offset="0.745192" stop-color="#364E11"/>
<stop offset="0.903846" stop-color="#2D430B"/>
</linearGradient>
<linearGradient id="paint29_linear_24_7" x1="945" y1="1075" x2="945" y2="1238" gradientUnits="userSpaceOnUse">
<stop offset="0.0865384" stop-color="#939393"/>
<stop offset="0.264423" stop-color="white"/>
<stop offset="0.442308" stop-color="#DFDFDF"/>
<stop offset="0.591346" stop-color="#CFCFCF"/>
<stop offset="0.745192" stop-color="#A3A3A3"/>
<stop offset="0.903846" stop-color="#B1B1B1"/>
</linearGradient>
<linearGradient id="paint30_linear_24_7" x1="378.629" y1="887.871" x2="263.371" y2="1003.13" gradientUnits="userSpaceOnUse">
<stop offset="0.0865384" stop-color="#668E28"/>
<stop offset="0.264423" stop-color="#5F8E15"/>
<stop offset="0.442308" stop-color="#557C19"/>
<stop offset="0.591346" stop-color="#4C7015"/>
<stop offset="0.745192" stop-color="#364E11"/>
<stop offset="0.903846" stop-color="#2D430B"/>
</linearGradient>
<linearGradient id="paint31_linear_24_7" x1="113" y1="864" x2="113" y2="1027" gradientUnits="userSpaceOnUse">
<stop offset="0.0865384" stop-color="#939393"/>
<stop offset="0.264423" stop-color="white"/>
<stop offset="0.442308" stop-color="#DFDFDF"/>
<stop offset="0.591346" stop-color="#CFCFCF"/>
<stop offset="0.745192" stop-color="#A3A3A3"/>
<stop offset="0.903846" stop-color="#B1B1B1"/>
</linearGradient>
<linearGradient id="paint32_linear_24_7" x1="737" y1="864" x2="737" y2="1027" gradientUnits="userSpaceOnUse">
<stop offset="0.0865384" stop-color="#939393"/>
<stop offset="0.264423" stop-color="white"/>
<stop offset="0.442308" stop-color="#DFDFDF"/>
<stop offset="0.591346" stop-color="#CFCFCF"/>
<stop offset="0.745192" stop-color="#A3A3A3"/>
<stop offset="0.903846" stop-color="#B1B1B1"/>
</linearGradient>
<linearGradient id="paint33_linear_24_7" x1="529" y1="864" x2="529" y2="1027" gradientUnits="userSpaceOnUse">
<stop offset="0.0865384" stop-color="#939393"/>
<stop offset="0.264423" stop-color="white"/>
<stop offset="0.442308" stop-color="#DFDFDF"/>
<stop offset="0.591346" stop-color="#CFCFCF"/>
<stop offset="0.745192" stop-color="#A3A3A3"/>
<stop offset="0.903846" stop-color="#B1B1B1"/>
</linearGradient>
<linearGradient id="paint34_linear_24_7" x1="1153" y1="864" x2="1153" y2="1027" gradientUnits="userSpaceOnUse">
<stop offset="0.0865384" stop-color="#939393"/>
<stop offset="0.264423" stop-color="white"/>
<stop offset="0.442308" stop-color="#DFDFDF"/>
<stop offset="0.591346" stop-color="#CFCFCF"/>
<stop offset="0.745192" stop-color="#A3A3A3"/>
<stop offset="0.903846" stop-color="#B1B1B1"/>
</linearGradient>
<linearGradient id="paint35_linear_24_7" x1="887.371" y1="887.871" x2="1002.63" y2="1003.13" gradientUnits="userSpaceOnUse">
<stop offset="0.0865384" stop-color="#668E28"/>
<stop offset="0.264423" stop-color="#5F8E15"/>
<stop offset="0.442308" stop-color="#557C19"/>
<stop offset="0.591346" stop-color="#4C7015"/>
<stop offset="0.745192" stop-color="#364E11"/>
<stop offset="0.903846" stop-color="#2D430B"/>
</linearGradient>
</defs>
</svg>
