<svg width="246" height="246" viewBox="0 0 246 246" fill="none" xmlns="http://www.w3.org/2000/svg">
<path d="M181.263 128.203C172.3 128.545 165.553 107.499 154.786 118.587C144.019 129.675 137.154 114.957 128.162 114.957M170.938 95.8211C162.847 96.049 156.755 82.0226 147.035 89.4123C137.315 96.802 131.117 86.9932 123 86.9932M64.7375 128.203C73.6995 128.545 80.4475 107.499 91.2144 118.587C101.981 129.675 108.846 114.957 117.838 114.957M70.2688 95.456C79.226 95.8262 85.7611 81.8515 96.4087 89.4114C107.056 96.9713 114.077 87.2728 123.067 87.4156M123 203.632C125.19 201.914 122.71 68.0333 122.26 59.7652C121.811 51.4971 123.424 48.3049 125.857 42.8397M127.794 41C133.694 66.0203 182 86.2573 182 123.052C182 159.847 152.5 189.282 123 204C93.5 189.282 64 159.847 64 123.052C64 86.2573 97.5562 48.7269 127.794 41ZM110.128 153.648L102.619 146.155C101.236 144.775 98.9951 144.775 97.6126 146.155L90.1032 153.648C88.7207 155.027 88.7207 157.264 90.1032 158.643L97.6126 166.136C98.9951 167.516 101.236 167.516 102.619 166.136L110.128 158.643C111.511 157.264 111.511 155.027 110.128 153.648ZM158.023 153.648L150.513 146.155C149.131 144.775 146.889 144.775 145.507 146.155L137.997 153.648C136.615 155.027 136.615 157.264 137.997 158.643L145.507 166.136C146.889 167.516 149.131 167.516 150.513 166.136L158.022 158.643C159.405 157.264 159.405 155.027 158.023 153.648Z" stroke="#4BB250" stroke-width="11" stroke-linecap="round"/>
</svg>
